<svg width="23" height="24" viewBox="0 0 23 24" fill="none" xmlns="http://www.w3.org/2000/svg">
<path d="M22.5 11.5504C22.5 17.6416 17.574 22.5774 11.5 22.5774C5.42597 22.5774 0.5 17.6416 0.5 11.5504C0.5 5.45928 5.42597 0.523438 11.5 0.523438C17.574 0.523438 22.5 5.45928 22.5 11.5504Z" stroke="white"/>
<path d="M16.5 11.5504C16.5 14.6759 15.8945 17.4809 14.9378 19.4859C13.9635 21.5279 12.715 22.5774 11.5 22.5774C10.285 22.5774 9.03649 21.5279 8.06218 19.4859C7.1055 17.4809 6.5 14.6759 6.5 11.5504C6.5 8.42497 7.1055 5.61994 8.06218 3.61493C9.03649 1.57295 10.285 0.523438 11.5 0.523438C12.715 0.523438 13.9635 1.57295 14.9378 3.61493C15.8945 5.61994 16.5 8.42497 16.5 11.5504Z" stroke="white"/>
<line x1="11.5" y1="1.02576" x2="11.5" y2="23.0774" stroke="white"/>
<line x1="22" y1="11.5493" x2="-4.37114e-08" y2="11.5493" stroke="white"/>
</svg>
