<svg width="96" height="38" viewBox="0 0 96 38" fill="none" xmlns="http://www.w3.org/2000/svg">
<path d="M6 31L0 37H46.5L48 31H6Z" fill="#FECF07"/>
<path fill-rule="evenodd" clip-rule="evenodd" d="M39.2207 0.141102C33.8631 0.60849 30.0807 3.30097 23.464 11.3573C20.1622 15.3776 15.1155 20.8587 10.5772 25.3534L9 26.9156L13.6214 26.9137C16.1632 26.9125 18.3085 26.8696 18.3888 26.818C18.469 26.7665 18.8859 26.2556 19.3153 25.6829C19.7445 25.1101 20.9829 23.4602 22.0672 22.0165L24.0384 19.3915H29.1811C33.9927 19.3915 34.3233 19.4059 34.3181 19.6147C34.3151 19.7373 33.9069 21.3873 33.411 23.2811C32.9151 25.1749 32.5495 26.7684 32.5985 26.8225C32.6476 26.8765 34.0235 26.9051 35.6562 26.8863L38.6249 26.8518L39.464 23.5999C39.9255 21.8113 41.4592 15.8758 42.8722 10.41C44.2852 4.94416 45.4413 0.36746 45.4413 0.239678C45.4413 0.0223714 45.2769 0.00847302 42.8935 0.0250516C41.4923 0.0348712 39.8395 0.0870303 39.2207 0.141102ZM48.1518 0.166734C48.0355 0.472034 41.3384 26.5046 41.3384 26.6509C41.3384 26.761 43.6081 26.7888 50.3714 26.7612L59.4045 26.7243L60.315 26.3834C63.0275 25.3679 64.515 23.3831 65.5003 19.4643C66.3704 16.0041 65.5676 14.2033 62.7133 13.2127C62.5099 13.1421 62.7283 13.024 63.6566 12.7025C66.3848 11.7581 67.8678 10.1807 68.6242 7.41896C69.0026 6.03695 69.0971 3.83723 68.8177 2.91125C68.3656 1.41268 67.0651 0.426506 65.1618 0.139187C63.8246 -0.0628162 48.2294 -0.0374378 48.1518 0.166734ZM69.9472 0.250645C70.3763 0.57584 70.9152 1.57119 71.1189 2.4144C71.478 3.90112 71.3074 4.80733 68.9437 13.9716C67.0052 21.4877 66.6705 22.654 66.1623 23.6637C65.5164 24.947 64.7392 25.9597 64.0519 26.4134C63.7998 26.5798 63.6205 26.758 63.6533 26.8091C63.6861 26.8603 65.5849 26.9065 67.8726 26.912L72.0323 26.9219L72.1662 26.4406C72.316 25.9027 74.3057 18.0457 74.5564 17.0019L74.7169 16.3339L79.6342 16.3005L84.5515 16.2671L85.1026 14.2266C85.4057 13.1044 85.6589 12.0571 85.6651 11.8993L85.6765 11.6123H80.8456C78.1886 11.6123 76.0148 11.5817 76.0148 11.5443C76.0148 11.4802 77.3329 6.36176 77.6144 5.33274L77.7449 4.85579L84.3247 4.82263L90.9044 4.7896L91.4446 2.74916C91.7416 1.62692 92.0256 0.550846 92.0757 0.358025L92.1668 0.00732431H80.8965C69.7827 0.00732431 69.6306 0.0107662 69.9472 0.250645ZM93.2528 0.154875C92.9714 0.425998 93.0695 0.633995 93.5749 0.837529C93.9538 0.990052 94.0264 1.06733 93.9025 1.1867C93.7786 1.30606 93.6826 1.30351 93.4692 1.17497C93.1121 0.960082 92.9442 1.12077 93.2792 1.35682C93.5995 1.58242 93.7658 1.5842 94.077 1.36485C94.4055 1.13339 94.257 0.79621 93.7517 0.626471C93.2228 0.448826 93.2297 0.206777 93.7606 0.309054C94.0532 0.365421 94.1532 0.342976 94.1144 0.229349C94.0403 0.0117874 93.4539 -0.0389665 93.2528 0.154875ZM94.5441 0.763179C94.5441 1.63202 94.8009 1.8464 94.8227 0.995662L94.8366 0.45367L94.9931 0.939549C95.1933 1.5615 95.3393 1.58471 95.548 1.02754L95.7152 0.581198L95.7252 0.988139C95.7308 1.21195 95.7949 1.43053 95.8677 1.47389C95.9504 1.52311 96 1.25951 96 0.770702C96 0.105647 95.9667 -0.00517222 95.7767 0.0300253C95.6506 0.0534904 95.4995 0.265569 95.4292 0.517691L95.3047 0.96378L95.1443 0.517434C95.0561 0.271944 94.8849 0.0525968 94.764 0.0298969C94.5785 -0.00491807 94.5441 0.109729 94.5441 0.763179ZM61.5867 4.89239C62.2897 5.12423 62.4514 5.56395 62.2715 6.75518C62.0396 8.29086 61.5065 9.77758 60.9946 10.3159L60.5502 10.7834L56.1616 10.8202C51.9974 10.8552 51.7768 10.8455 51.8441 10.629C51.9877 10.1682 53.3825 4.89264 53.3825 4.81064C53.3825 4.65213 61.0909 4.7289 61.5867 4.89239ZM38.3733 5.77794C38.3277 6.00596 37.673 8.17227 36.9183 10.5921L35.5461 14.9918L31.4172 15.0255L27.2882 15.0593L27.5889 14.6429C31.109 9.76891 32.4461 8.18106 33.9621 7.07579C35.2355 6.14726 37.0409 5.41257 38.1435 5.37431C38.4262 5.36449 38.4482 5.40301 38.3733 5.77794ZM59.1606 15.5913C59.4687 15.8884 59.5152 16.0319 59.4986 16.637C59.4666 17.8103 58.7831 20.308 58.2389 21.2406C58.0353 21.5896 57.796 21.7988 57.4817 21.903C56.8817 22.1017 49.0148 22.1341 49.0148 21.9378C49.0148 21.8262 50.2012 17.1728 50.6167 15.6544L50.7494 15.1693L54.7764 15.2081L58.8034 15.2468L59.1606 15.5913ZM66.4924 30.0719C66.2954 30.7552 66.2834 30.7414 67.0732 30.7414C67.876 30.7414 67.8802 30.7385 68.0102 30.0709L68.1031 29.5937H67.3666H66.6302L66.4924 30.0719ZM74.2706 33.1644L73.4069 36.4802H74.1102C74.9112 36.4802 74.7922 36.6759 75.3538 34.435C75.5026 33.8415 75.68 33.2288 75.7482 33.0738C75.9797 32.5467 77.4706 32.4234 77.4706 32.9313C77.4706 33.0678 77.292 33.8613 77.0736 34.6948C76.8552 35.5283 76.6765 36.2739 76.6765 36.3519C76.6765 36.4424 76.9242 36.4796 77.3637 36.4549L78.0509 36.4164L78.4853 34.7585C79.0393 32.6443 79.075 32.0584 78.6694 31.7419C78.2209 31.3921 77.2958 31.4316 76.5889 31.8308C75.9217 32.2076 75.9183 32.1969 76.2795 30.869C76.4225 30.3429 76.5406 29.8982 76.5419 29.8806C76.5431 29.863 76.2269 29.8487 75.8393 29.8487H75.1344L74.2706 33.1644ZM51.5957 30.2632C51.5638 30.3509 51.1855 31.7856 50.755 33.4514L49.9723 36.4802H50.7211H51.4698L51.7974 35.2472L52.1251 34.0143L53.1944 34.0432C54.3684 34.075 54.4809 34.0189 54.635 33.3239L54.727 32.9094H53.5914C52.327 32.9094 52.3652 32.9475 52.6324 31.9529L52.8038 31.3153L54.4009 31.2796L55.998 31.2439L56.0799 30.8492C56.2427 30.065 56.3556 30.1038 53.9078 30.1038C52.2235 30.1038 51.639 30.1441 51.5957 30.2632ZM81.2639 30.327C81.2307 30.3796 81.1355 30.6666 81.0525 30.9646C80.9191 31.4438 80.8573 31.5066 80.5186 31.5066C80.1357 31.5066 80.1272 31.5176 79.8997 32.3036C79.8511 32.4715 79.9139 32.5268 80.1529 32.5268C80.3276 32.5268 80.5011 32.5561 80.5383 32.592C80.5755 32.6278 80.4257 33.3797 80.2055 34.2627C79.7727 35.9973 79.7884 36.1529 80.4269 36.4549C80.7072 36.5874 80.9376 36.5906 81.5728 36.4701C82.0099 36.3873 82.3685 36.2552 82.3695 36.1766C82.3705 36.0981 82.4073 35.9046 82.4511 35.7469C82.5244 35.4833 82.4865 35.4599 81.9861 35.4599C81.3232 35.4599 81.314 35.3938 81.75 33.7383L82.0522 32.5906L82.6725 32.5517C83.2247 32.5171 83.3013 32.4752 83.3707 32.1691C83.4135 31.9801 83.4715 31.7537 83.4996 31.666C83.5352 31.5545 83.3684 31.5066 82.9447 31.5066C82.3653 31.5066 82.3426 31.4927 82.4196 31.1878C82.4638 31.0124 82.5363 30.7255 82.5805 30.5501C82.6585 30.2419 82.6389 30.2313 81.9927 30.2313C81.6252 30.2313 81.2972 30.2743 81.2639 30.327ZM56.6254 31.666C56.5936 31.7537 56.3282 32.7436 56.0355 33.8658C55.7427 34.9881 55.4658 36.0355 55.42 36.1932C55.3412 36.4656 55.3737 36.4802 56.0611 36.4802H56.7854L57.2292 34.7634L57.6729 33.0466L58.3137 32.9142C58.666 32.8414 59.0638 32.7819 59.1978 32.7819C59.3721 32.7819 59.4665 32.6527 59.5299 32.3265C59.5787 32.076 59.6512 31.7891 59.6912 31.6888C59.8133 31.3821 59.0327 31.4709 58.4906 31.8254C58.2225 32.0008 57.9748 32.1442 57.9403 32.1442C57.9056 32.1442 57.9147 32.0008 57.9604 31.8254C58.041 31.5163 58.0228 31.5066 57.3632 31.5066C56.938 31.5066 56.6614 31.5664 56.6254 31.666ZM60.9822 31.7471C60.493 32.0344 60.2109 32.573 59.8632 33.8828C59.5273 35.1481 59.5309 35.7198 59.8774 36.1441C60.1445 36.4715 60.1902 36.4802 61.6346 36.4802C63.3012 36.4802 63.6015 36.3695 63.9185 35.6386C64.2276 34.9259 64.1754 34.8223 63.5074 34.8223C63.1799 34.8223 62.9119 34.8797 62.9119 34.9498C62.9119 35.274 62.3668 35.5875 61.803 35.5875C61.0833 35.5875 60.8804 35.3806 60.9996 34.7682L61.0884 34.3122H62.7124H64.3364L64.4843 33.7456C64.5659 33.434 64.6324 32.9216 64.6324 32.6072C64.6324 32.1412 64.5678 31.9862 64.2837 31.771C63.7931 31.3991 61.6014 31.3833 60.9822 31.7471ZM66.1548 31.666C66.123 31.7537 65.8543 32.7723 65.5576 33.9296C65.2607 35.0869 64.9867 36.1343 64.9486 36.257C64.8887 36.4501 64.9748 36.4802 65.587 36.4802H66.2945L66.8749 34.2165C67.1941 32.9715 67.4823 31.8524 67.5152 31.7298C67.5664 31.5386 67.4772 31.5066 66.8937 31.5066C66.4676 31.5066 66.1908 31.5663 66.1548 31.666ZM69.2629 31.6914C68.8243 31.9213 68.4185 32.6508 68.155 33.6827C67.763 35.2178 67.9112 35.7494 68.7968 35.9851C69.3688 36.1372 69.9877 36.0319 70.4763 35.6992C70.9135 35.4015 71.0219 35.3977 70.936 35.6831C70.8991 35.8058 70.8034 36.1502 70.7234 36.4483L70.5781 36.9903H69.7229C69.051 36.9903 68.8677 36.9493 68.8677 36.799C68.8677 36.6545 68.706 36.6077 68.206 36.6077H67.5442V37.1149C67.5442 37.9157 67.8587 38.0421 69.7197 37.9897C71.8204 37.9305 71.719 38.0495 72.6404 34.5616C73.0382 33.0567 73.3644 31.7537 73.3656 31.666C73.3671 31.5595 73.1488 31.5066 72.7085 31.5066C72.1179 31.5066 72.0407 31.5394 71.9673 31.8213L71.8852 32.1361L71.4047 31.8213C70.8529 31.46 69.823 31.3975 69.2629 31.6914ZM63.3089 32.854C63.3089 33.4982 63.1322 33.626 62.2631 33.6108C61.8233 33.6031 61.4286 33.5631 61.3858 33.5219C61.3431 33.4807 61.3979 33.2401 61.5076 32.9869C61.7056 32.5304 61.7133 32.5268 62.508 32.5268C63.2795 32.5268 63.3089 32.5388 63.3089 32.854ZM71.5345 32.7499C71.6064 32.8191 71.5643 33.2276 71.4301 33.7668C71.2284 34.5767 71.1605 34.6888 70.7601 34.8727C69.8278 35.301 69.3042 35.0395 69.4453 34.2159C69.6119 33.2435 69.8107 32.7677 70.1002 32.6488C70.4319 32.5126 71.3558 32.5777 71.5345 32.7499Z" fill="#106A37"/>
</svg>
