<?xml version="1.0" encoding="utf-8"?>
<!-- Generator: Adobe Illustrator 25.1.0, SVG Export Plug-In . SVG Version: 6.00 Build 0)  -->
<svg version="1.1" id="Layer_1" xmlns="http://www.w3.org/2000/svg" xmlns:xlink="http://www.w3.org/1999/xlink" x="0px" y="0px"
	 viewBox="0 0 64 64" style="enable-background:new 0 0 64 64;" xml:space="preserve">
<style type="text/css">
	.st0{display:none;}
	.st1{fill:#00263E;}
</style>
<g>
	<g>
		<polygon class="st1" points="54.1,63 9.9,63 9.9,6.6 26.5,6.6 26.5,8.9 12.1,8.9 12.1,60.8 51.9,60.8 51.9,8.9 37.1,8.9 37.1,6.6 
			54.1,6.6 		"/>
	</g>
	<g>
		<path class="st1" d="M38.6,13.9H25.4c-1.4,0-2.5-1.1-2.5-2.5V9.7c0-1.4,1.1-2.5,2.5-2.5c0.1,0,0.2-0.1,0.2-0.2V3.5
			c0-1.4,1.1-2.5,2.5-2.5h7.7c1.4,0,2.5,1.1,2.5,2.5v3.4c0,0.1,0.1,0.2,0.2,0.2c1.4,0,2.5,1.1,2.5,2.5v1.8
			C41.1,12.8,40,13.9,38.6,13.9z M28.2,3.2c-0.1,0-0.2,0.1-0.2,0.2v3.4c0,1.4-1.1,2.5-2.5,2.5c-0.1,0-0.2,0.1-0.2,0.2v1.8
			c0,0.1,0.1,0.2,0.2,0.2h13.2c0.1,0,0.2-0.1,0.2-0.2V9.7c0-0.1-0.1-0.2-0.2-0.2c-1.4,0-2.5-1.1-2.5-2.5V3.5c0-0.1-0.1-0.2-0.2-0.2
			H28.2z"/>
	</g>
	<g>
		<rect x="27" y="22.4" class="st1" width="18.4" height="2.3"/>
	</g>
	<g>
		<rect x="27.1" y="36.6" class="st1" width="18.4" height="2.3"/>
	</g>
	<g>
		<path class="st1" d="M23,27.4h-7.2v-7.2H23V27.4z M18,25.1h2.7v-2.7H18V25.1z"/>
	</g>
	<g>
		<path class="st1" d="M23,41.4h-7.2v-7.2H23V41.4z M18,39.1h2.7v-2.7H18V39.1z"/>
	</g>
</g>
</svg>
