<?xml version="1.0" encoding="utf-8"?>
<!-- Generator: Adobe Illustrator 25.1.0, SVG Export Plug-In . SVG Version: 6.00 Build 0)  -->
<svg version="1.1" id="Layer_1" xmlns="http://www.w3.org/2000/svg" xmlns:xlink="http://www.w3.org/1999/xlink" x="0px" y="0px"
	 viewBox="0 0 64 64" style="enable-background:new 0 0 64 64;" xml:space="preserve">
<style type="text/css">
	.st0{display:none;}
	.st1{fill:#00263E;}
</style>
<g>
	<g>
		<g>
			<path class="st1" d="M33.1,53.4l-1.1,0c-17,0-30.8-13.9-30.8-30.8l0-1.2l1.1,0c17,0,30.8,13.9,30.8,30.8L33.1,53.4z M3.5,23.7
				C4,38.5,16,50.4,30.8,51.1C30.2,36.3,18.3,24.3,3.5,23.7z"/>
		</g>
		<g>
			<path class="st1" d="M30.9,53.4l0-1.2c0-17,13.8-30.8,30.8-30.8l1.1,0v1.1c0,17-13.8,30.8-30.8,30.9L30.9,53.4z M60.5,23.7
				c-14.8,0.6-26.7,12.6-27.3,27.4C48,50.4,60,38.5,60.5,23.7z"/>
		</g>
	</g>
	<g>
		<path class="st1" d="M41.6,28.9c0-9-3.4-17.5-9.6-24.1c-6.1,6.5-9.5,14.9-9.6,23.8l-2.3,0c0.1-9.9,4-19.2,11-26.2l0.1-0.1L32,1.7
			l0.7,0.7c7.1,7.1,11,16.5,11.1,26.5L41.6,28.9z"/>
	</g>
	<g>
		<rect x="31" y="51.9" class="st1" width="2.3" height="10.5"/>
	</g>
</g>
</svg>
