<?xml version="1.0" encoding="utf-8"?>
<!-- Generator: Adobe Illustrator 25.1.0, SVG Export Plug-In . SVG Version: 6.00 Build 0)  -->
<svg version="1.1" id="Layer_1" xmlns="http://www.w3.org/2000/svg" xmlns:xlink="http://www.w3.org/1999/xlink" x="0px" y="0px"
	 viewBox="0 0 64 64" style="enable-background:new 0 0 64 64;" xml:space="preserve">
<style type="text/css">
	.st0{display:none;}
	.st1{fill:#00263E;}
</style>
<g>
	<g>
		<path class="st1" d="M40.5,34.7c-0.4,0-0.8-0.1-1.1-0.4L32,28.8l-7.4,5.6c-0.5,0.4-1.1,0.5-1.6,0.3c-0.5-0.1-0.8-0.5-1.1-0.9
			c-0.2-0.4-0.3-0.9-0.1-1.4l2.7-9l-7.4-5c-0.5-0.3-0.8-0.9-0.8-1.5c0-0.5,0.2-0.9,0.5-1.3c0.3-0.3,0.8-0.5,1.3-0.5h9.4l2.8-9
			c0.2-0.5,0.6-1,1.1-1.2c0.9-0.3,2,0.2,2.3,1.1l3.2,9.1h9c0,0,0,0,0,0c0.6,0,1.2,0.3,1.5,0.8c0.3,0.4,0.4,0.9,0.3,1.4
			s-0.4,0.9-0.8,1.1l-7.4,5l2.8,9c0.2,0.5,0.1,1.2-0.3,1.6c-0.3,0.4-0.7,0.6-1.2,0.7C40.7,34.7,40.6,34.7,40.5,34.7z M40.1,33.1
			C40.1,33.1,40.1,33.1,40.1,33.1L40.1,33.1z M23.9,33L23.9,33C23.9,33,23.9,33,23.9,33z M40.8,32.6L40.8,32.6
			C40.8,32.6,40.8,32.6,40.8,32.6z M23.2,32.5C23.2,32.5,23.2,32.5,23.2,32.5L23.2,32.5z M32,25.9l7.7,5.8l-2.8-9.2l7.6-5.1h-9.1
			L32,8.1l-2.8,9.3h-9.6l7.6,5.1l-2.8,9.2L32,25.9z M18.1,17.4C18.1,17.4,18.1,17.4,18.1,17.4L18.1,17.4z M45.7,16.5
			C45.7,16.5,45.7,16.5,45.7,16.5L45.7,16.5z M18.3,16.5L18.3,16.5C18.3,16.5,18.3,16.5,18.3,16.5z"/>
	</g>
	<g>
		<g>
			<path class="st1" d="M24.1,59.2c-0.4,0-0.8-0.1-1.1-0.4l-7.4-5.6l-7.4,5.6c-0.5,0.4-1.1,0.5-1.6,0.3c-0.9-0.3-1.5-1.3-1.2-2.3
				l2.7-9l-7.4-5c-0.5-0.3-0.8-0.9-0.8-1.5c0-1,0.8-1.8,1.8-1.8c0,0,0,0,0,0h9.4l2.8-9c0.2-0.6,0.6-1,1.1-1.2
				c0.5-0.2,0.9-0.1,1.4,0.1c0.4,0.2,0.8,0.6,0.9,1l3.2,9.1h9c0,0,0,0,0,0c0.6,0,1.2,0.3,1.5,0.8c0.3,0.4,0.4,0.9,0.3,1.4
				s-0.4,0.9-0.8,1.2l-7.4,5l2.8,9c0.2,0.6,0.1,1.2-0.3,1.6C25.2,59,24.6,59.2,24.1,59.2z M23.7,57.5C23.7,57.5,23.7,57.5,23.7,57.5
				L23.7,57.5z M7.5,57.5L7.5,57.5C7.5,57.5,7.5,57.5,7.5,57.5z M24.4,57L24.4,57L24.4,57z M6.8,57C6.8,57,6.8,57,6.8,57L6.8,57z
				 M15.6,50.4l7.7,5.8l-2.8-9.2l7.6-5.1h-9.1l-3.2-9.3l-2.8,9.3H3.2l7.6,5.1l-2.8,9.2L15.6,50.4z M1.7,41.9
				C1.7,41.9,1.7,41.9,1.7,41.9C1.7,41.9,1.7,41.9,1.7,41.9L1.7,41.9z M29.2,41C29.2,41,29.2,41,29.2,41L29.2,41z M1.9,41L1.9,41
				C1.9,41,1.9,41,1.9,41z"/>
		</g>
		<g>
			<path class="st1" d="M57,59.2c-0.4,0-0.8-0.1-1.1-0.4l-7.4-5.6L41,58.8c-0.5,0.4-1.1,0.5-1.6,0.3c-0.9-0.3-1.5-1.3-1.2-2.3l2.7-9
				l-7.4-5c-0.5-0.3-0.8-0.9-0.8-1.5c0-1,0.8-1.8,1.8-1.8c0,0,0,0,0,0h9.4l2.8-9c0.2-0.6,0.6-1,1.1-1.2c0.5-0.2,0.9-0.1,1.4,0.1
				c0.4,0.2,0.8,0.6,0.9,1l3.2,9.1h9c0,0,0,0,0,0c0.6,0,1.2,0.3,1.5,0.8c0.3,0.4,0.4,0.9,0.3,1.4s-0.4,0.9-0.8,1.2l-7.4,5l2.8,9
				c0.2,0.6,0.1,1.2-0.3,1.6C58,59,57.5,59.2,57,59.2z M56.5,57.5C56.5,57.5,56.5,57.5,56.5,57.5L56.5,57.5z M40.3,57.5L40.3,57.5
				C40.3,57.5,40.3,57.5,40.3,57.5z M57.2,57L57.2,57C57.2,57,57.2,57,57.2,57z M39.6,57C39.6,57,39.6,57,39.6,57L39.6,57z
				 M48.4,50.4l7.7,5.8l-2.8-9.2l7.6-5.1h-9.1l-3.2-9.3l-2.8,9.3H36l7.6,5.1l-2.8,9.2L48.4,50.4z M34.5,41.9
				C34.5,41.9,34.5,41.9,34.5,41.9C34.5,41.9,34.5,41.9,34.5,41.9L34.5,41.9z M62.1,41C62.1,41,62.1,41,62.1,41L62.1,41z M34.8,41
				L34.8,41C34.8,41,34.8,41,34.8,41z"/>
		</g>
	</g>
</g>
</svg>
