<?xml version="1.0" encoding="utf-8"?>
<!-- Generator: Adobe Illustrator 25.1.0, SVG Export Plug-In . SVG Version: 6.00 Build 0)  -->
<svg version="1.1" id="Layer_1" xmlns="http://www.w3.org/2000/svg" xmlns:xlink="http://www.w3.org/1999/xlink" x="0px" y="0px"
	 viewBox="0 0 64 64" style="enable-background:new 0 0 64 64;" xml:space="preserve">
<style type="text/css">
	.st0{display:none;}
	.st1{fill:#00263E;}
</style>
<g>
	<g>
		<path class="st1" d="M56.8,56.9H7.2c-1.2,0-2.2-0.6-2.8-1.6c-0.6-1-0.6-2.2,0-3.2L29.2,8.7c0.6-1,1.6-1.6,2.8-1.6
			c1.2,0,2.2,0.6,2.8,1.6l24.8,43.4c0.6,1,0.6,2.2,0,3.2S57.9,56.9,56.8,56.9z M32,9.4c-0.2,0-0.6,0-0.8,0.5L6.4,53.2
			c-0.2,0.4-0.1,0.8,0,0.9c0.1,0.1,0.3,0.5,0.8,0.5h49.5c0.5,0,0.7-0.3,0.8-0.5c0.1-0.1,0.2-0.5,0-0.9L32.8,9.9
			C32.6,9.4,32.2,9.4,32,9.4z"/>
	</g>
	<g>
		<rect x="30.9" y="24.9" class="st1" width="2.3" height="15.5"/>
	</g>
	<g>
		<circle class="st1" cx="32" cy="44.9" r="1.6"/>
	</g>
</g>
</svg>
