<?xml version="1.0" encoding="utf-8"?>
<!-- Generator: Adobe Illustrator 25.1.0, SVG Export Plug-In . SVG Version: 6.00 Build 0)  -->
<svg version="1.1" id="Layer_1" xmlns="http://www.w3.org/2000/svg" xmlns:xlink="http://www.w3.org/1999/xlink" x="0px" y="0px"
	 viewBox="0 0 64 64" style="enable-background:new 0 0 64 64;" xml:space="preserve">
<style type="text/css">
	.st0{display:none;}
	.st1{fill:#00263E;}
</style>
<g>
	<g transform="translate(0,-952.36218)">
		<g>
			<path class="st1" d="M32,1013.6l-0.7-0.5c-0.9-0.6-1.8-1.3-2.8-1.9c-10-7-20.4-14.3-20.4-24.7v-31.4h47.6v31.4
				c0,10.4-10.4,17.6-20.4,24.7c-0.9,0.6-1.8,1.3-2.8,1.9L32,1013.6z M10.5,957.4v29.1c0,9.2,9.9,16.1,19.4,22.8
				c0.7,0.5,1.4,1,2.1,1.5c0.7-0.5,1.4-1,2.1-1.5c9.5-6.7,19.4-13.6,19.4-22.8v-29.1H10.5z"/>
		</g>
	</g>
	<g>
		<polygon class="st1" points="27.2,38 18.3,29.1 19.9,27.5 27.2,34.8 44.1,17.9 45.7,19.5 		"/>
	</g>
</g>
</svg>
