<?xml version="1.0" encoding="utf-8"?>
<!-- Generator: Adobe Illustrator 25.1.0, SVG Export Plug-In . SVG Version: 6.00 Build 0)  -->
<svg version="1.1" id="Layer_1" xmlns="http://www.w3.org/2000/svg" xmlns:xlink="http://www.w3.org/1999/xlink" x="0px" y="0px"
	 viewBox="0 0 64 64" style="enable-background:new 0 0 64 64;" xml:space="preserve">
<style type="text/css">
	.st0{display:none;}
	.st1{fill:#00263E;}
</style>
<g>
	<g>
		<g>
			<rect x="33" y="4.3" class="st1" width="2.3" height="4.7"/>
		</g>
		<g>
			<rect x="26.1" y="2.7" class="st1" width="16.2" height="2.3"/>
		</g>
		<g>
			
				<rect x="47.9" y="10.6" transform="matrix(0.5968 -0.8024 0.8024 0.5968 10.8476 45.0427)" class="st1" width="4.7" height="2.3"/>
		</g>
		<g>
			<rect x="50.7" y="5.7" transform="matrix(0.614 -0.7893 0.7893 0.614 12.5026 44.6254)" class="st1" width="2.3" height="7.6"/>
		</g>
		<g>
			<path class="st1" d="M34.2,61.3c-14.7,0-26.7-12-26.7-26.7h2.3C9.7,48,20.7,59,34.2,59s24.4-11,24.4-24.4
				c0-13.5-11-24.4-24.4-24.4c-10.9,0-20.6,7.3-23.5,17.8l-2.2-0.6C11.7,15.8,22.3,7.8,34.2,7.8c14.7,0,26.7,12,26.7,26.7
				S48.9,61.3,34.2,61.3z"/>
		</g>
	</g>
	<g>
		<g>
			<path class="st1" d="M34.8,47.9h-1.1c-3.6,0-6.5-2.9-6.5-6.5v-0.5h2.3v0.5c0,2.3,1.9,4.3,4.3,4.3h1.1c2.3,0,4.3-1.9,4.3-4.3v-1.9
				c0-2.3-1.9-4.3-4.3-4.3h-1.1c-3.6,0-6.5-2.9-6.5-6.5c0-3.6,2.9-6.5,6.5-6.5h1.1c3.6,0,6.5,2.9,6.5,6.5l-2.3,0v0
				c0-2.3-1.9-4.3-4.3-4.3h-1.1c-2.3,0-4.3,1.9-4.3,4.3s1.9,4.3,4.3,4.3h1.1c3.6,0,6.5,2.9,6.5,6.5v1.9
				C41.4,44.9,38.4,47.9,34.8,47.9z"/>
		</g>
		<g>
			<rect x="32.9" y="20" class="st1" width="2.3" height="30.4"/>
		</g>
	</g>
	<g>
		<polygon class="st1" points="5,40.1 3.1,38.8 8.1,31.8 14.4,37.4 12.9,39.1 8.5,35.2 		"/>
	</g>
</g>
</svg>
