<svg width="131" height="19" viewBox="0 0 131 19" fill="none" xmlns="http://www.w3.org/2000/svg">
<path fill-rule="evenodd" clip-rule="evenodd" d="M5.96699 10.5465C7.22834 10.5465 8.25856 9.99189 9.05839 8.88339L10.7032 10.7645C9.39815 12.3986 7.8612 13.2149 6.09094 13.2149C4.31921 13.2149 2.861 12.5932 1.71631 11.3499C0.572347 10.1073 0 8.53864 0 6.64538C0 4.75051 0.583283 3.1697 1.75131 1.90214C2.91642 0.634585 4.34546 0 6.03334 0C7.9188 0 9.49658 0.799287 10.7689 2.39463L9.17359 4.40496C8.36282 3.28515 7.35374 2.72565 6.14781 2.72565C5.18393 2.72565 4.35858 3.07604 3.67396 3.77683C2.9886 4.47762 2.64592 5.42142 2.64592 6.60905C2.64592 7.79749 2.96818 8.75098 3.61563 9.46953C4.26234 10.1897 5.04613 10.549 5.96626 10.549L5.96699 10.5465ZM12.6572 0.293072H15.2215V13.0679H12.6572V0.293072ZM22.7524 2.76037V13.0679H20.1874V2.76037H16.9313V0.293072H26.0086V2.76037H22.7524ZM33.5402 13.0679H30.9753V8.02435L26.9958 0.293072H29.7752L32.2578 5.0452L34.7418 0.293072H37.5197L33.5402 8.02435V13.0679ZM49.3713 6.2086C49.3713 7.05794 49.2328 7.8314 48.9572 8.52573C48.6801 9.22167 48.301 9.75534 47.8198 10.1275C47.3371 10.4989 46.7822 10.6862 46.1545 10.6862C45.4283 10.6862 44.8516 10.4456 44.4243 9.96363C43.9963 9.48245 43.7827 8.82768 43.7827 7.99933C43.7827 7.1629 43.9176 6.39591 44.1881 5.69835C44.4579 4.99998 44.837 4.45663 45.3255 4.06748C45.814 3.67833 46.3776 3.48457 47.017 3.48457C47.7534 3.48457 48.3309 3.72839 48.7472 4.21604C49.1628 4.70368 49.3706 5.36733 49.3706 6.2086H49.3713ZM48.0261 6.14563C48.0261 5.69593 47.9342 5.34392 47.749 5.08799C47.5631 4.83447 47.2984 4.70853 46.9543 4.70853C46.6029 4.70853 46.2879 4.85789 46.0094 5.15823C45.7323 5.45937 45.5158 5.86709 45.3627 6.38218C45.2071 6.91406 45.1295 7.47013 45.133 8.0292C45.133 8.49747 45.2263 8.85432 45.4137 9.10299C45.6011 9.35004 45.8781 9.47437 46.2449 9.47437C46.5854 9.47437 46.8923 9.33147 47.1636 9.04647C47.4362 8.75986 47.6484 8.36022 47.7993 7.84351C47.9503 7.32922 48.0254 6.76164 48.0254 6.14482L48.0261 6.14563ZM49.2036 13.6751C48.8631 13.6751 48.5817 13.6266 48.3578 13.5297V12.3316C48.6006 12.4156 48.8157 12.4576 49.0053 12.4576C49.512 12.4576 49.8467 12.0264 50.0093 11.1658L51.2414 4.72064H50.2251L50.3446 4.05295L51.4456 3.57338L51.5637 2.99208C51.7314 2.1605 51.9851 1.5687 52.3271 1.2175C52.6683 0.866298 53.1539 0.690293 53.7816 0.690293C54.2169 0.690293 54.6157 0.779103 54.9788 0.960759L54.6332 2.07088C54.3875 1.96035 54.1256 1.90017 53.8604 1.89326C53.6001 1.89326 53.3908 1.98449 53.2334 2.16534C53.0773 2.34619 52.9563 2.64168 52.8739 3.05505L52.7718 3.59598H54.0711L53.8611 4.71821H52.5618L51.2968 11.3588C51.1452 12.1532 50.8973 12.7377 50.5532 13.1123C50.209 13.4861 49.7584 13.6735 49.2029 13.6735L49.2036 13.6751ZM65.7382 13.0679H60.7074V0.293072H65.179C65.9569 0.293072 66.6284 0.398029 67.1935 0.603906C67.7571 0.811397 68.1814 1.09155 68.4673 1.44518C68.982 2.10317 69.2401 2.84595 69.2401 3.67349C69.2401 4.67462 68.9485 5.41739 68.3681 5.90423C68.1712 6.07377 68.0342 6.18115 67.9576 6.22394C67.8811 6.26673 67.744 6.33697 67.5464 6.43386C68.2595 6.60502 68.8267 6.96106 69.2489 7.50361C69.6703 8.04454 69.8817 8.71869 69.8817 9.52201C69.8817 10.4125 69.6076 11.1981 69.0593 11.8795C68.4235 12.6723 67.3167 13.0679 65.7382 13.0679ZM63.2717 5.46583H64.4893C65.2009 5.46583 65.7287 5.38025 66.0751 5.2099C66.4199 5.04035 66.5927 4.67058 66.5927 4.10381C66.5927 3.53866 66.4338 3.16243 66.1159 2.97997C65.7987 2.7975 65.2614 2.70546 64.5046 2.70546H63.2724V5.46664L63.2717 5.46583ZM63.2717 10.6555H65.031C65.7652 10.6555 66.3164 10.5554 66.6831 10.3544C67.0499 10.1526 67.2336 9.75695 67.2336 9.16516C67.2336 8.57578 67.0389 8.18502 66.6503 7.9961C66.2603 7.80637 65.6383 7.71191 64.7838 7.71191H63.2717V10.6539V10.6555ZM81.6378 11.3047C80.4763 12.5658 79.0458 13.1963 77.347 13.1963C75.6482 13.1963 74.217 12.5649 73.0555 11.3039C71.8926 10.0428 71.3115 8.47406 71.3115 6.59694C71.3115 4.72144 71.8926 3.15274 73.054 1.89165C74.2162 0.630549 75.6467 0 77.3463 0C79.0451 0 80.4756 0.629741 81.6378 1.89165C82.8 3.15274 83.3804 4.72144 83.3804 6.59856C83.3804 8.47406 82.8 10.0428 81.6378 11.3039V11.3047ZM80.7672 6.60744C80.7672 5.46906 80.4391 4.497 79.7808 3.69287C79.1224 2.88874 78.3138 2.48667 77.355 2.48667C76.3963 2.48667 75.5877 2.88874 74.93 3.69287C74.2717 4.497 73.9428 5.46906 73.9428 6.60744C73.9428 7.74743 74.2709 8.71465 74.93 9.51394C75.5877 10.3116 76.3955 10.7104 77.355 10.7104C78.3138 10.7104 79.1224 10.3116 79.7808 9.51394C80.4384 8.71465 80.7672 7.74743 80.7672 6.60744ZM88.1399 2.84272C87.8921 3.06878 87.7696 3.3675 87.7696 3.73889C87.7696 4.11027 87.9205 4.40577 88.2216 4.62456C88.5235 4.84416 89.219 5.10333 90.3105 5.40124C91.4012 5.69996 92.2477 6.14805 92.8507 6.74469C93.4529 7.34214 93.7548 8.21408 93.7548 9.35811C93.7548 10.5046 93.3683 11.433 92.5955 12.1451C91.8226 12.858 90.8055 13.2149 89.5449 13.2149C87.7251 13.2149 86.0861 12.464 84.6286 10.9664L86.1575 8.88339C87.397 10.0896 88.5417 10.6919 89.5945 10.6919C90.0655 10.6919 90.4352 10.5788 90.7042 10.3544C90.9725 10.1283 91.1074 9.82315 91.1074 9.43966C91.1074 9.05616 90.9638 8.75179 90.6787 8.52573C90.3943 8.29967 89.8293 8.07199 88.985 7.83947C87.6463 7.48746 86.6686 7.02727 86.0496 6.4605C85.4299 5.89535 85.1207 5.00483 85.1207 3.79217C85.1207 2.58113 85.5123 1.64459 86.296 0.987402C87.0798 0.329403 88.0583 0 89.2307 0C89.9984 0 90.7654 0.145325 91.5332 0.439204C92.3002 0.729854 92.9695 1.14484 93.5382 1.68092L92.2404 3.76391C91.2416 2.92426 90.2121 2.50443 89.149 2.50443C88.721 2.50443 88.3835 2.61585 88.1377 2.8411L88.1399 2.84272ZM100.87 2.76037V13.0679H98.3037V2.76037H95.0489V0.293072H104.126V2.76037H100.87ZM115.369 11.3047C114.207 12.5658 112.776 13.1963 111.078 13.1963C109.379 13.1963 107.948 12.5649 106.786 11.3039C105.624 10.0428 105.043 8.47406 105.043 6.59694C105.043 4.72144 105.624 3.15274 106.786 1.89165C107.948 0.630549 109.378 0 111.078 0C112.776 0 114.207 0.629741 115.369 1.89165C116.531 3.15274 117.112 4.72144 117.112 6.59856C117.112 8.47406 116.531 10.0428 115.369 11.3039V11.3047ZM114.498 6.60744C114.498 5.46906 114.168 4.497 113.511 3.69287C112.853 2.88874 112.044 2.48667 111.085 2.48667C110.125 2.48667 109.317 2.88874 108.659 3.69287C108.001 4.497 107.672 5.46906 107.672 6.60744C107.672 7.74743 108 8.71465 108.658 9.51394C109.316 10.3116 110.124 10.7104 111.083 10.7104C112.041 10.7104 112.851 10.3116 113.508 9.51394C114.166 8.71465 114.495 7.74743 114.495 6.60744H114.498ZM127.358 0.293072H129.923V13.0679H127.358L121.882 5.06376V13.0679H119.317V0.293072H121.716L127.357 8.51765V0.293072" fill="#091F2F"/>
<path fill-rule="evenodd" clip-rule="evenodd" d="M60.2751 15.934H130.269V18.7597H60.2751V15.934Z" fill="#FB4D42"/>
</svg>
