<svg width="120" height="38" viewBox="0 0 120 38" fill="none" xmlns="http://www.w3.org/2000/svg">
<path fill-rule="evenodd" clip-rule="evenodd" d="M92.2195 0.104032C89.7549 0.312216 83.5117 0.57539 81.0383 0.57539C80.3444 0.57539 79.7592 0.603762 79.738 0.638422C79.6516 0.779771 81.5567 1.23972 86.1368 2.18317C90.0554 2.99038 90.8108 3.15542 91.8541 3.43198C93.5044 3.86948 94.5651 4.28621 94.5184 4.4786C94.5059 4.53008 94.2596 4.7768 93.971 5.02689C93.6825 5.2769 93.4463 5.51162 93.4463 5.5484C93.4463 5.58519 93.5847 5.65063 93.7539 5.69385C94.9931 6.01026 96.3005 6.62289 97.5597 7.47734C98.011 7.78351 98.4262 8.03403 98.4825 8.03403C98.5921 8.03403 98.6127 7.83594 98.5867 7.03311L98.572 6.58062L98.8136 6.5407C98.9464 6.51876 99.2505 6.46414 99.4894 6.41931C100.158 6.29376 102.526 6.24513 103.011 6.34699C103.54 6.45807 104.438 6.90076 104.99 7.32203C105.228 7.50462 105.916 8.1261 106.518 8.70319C107.866 9.99595 108.26 10.2458 109.213 10.4114C110.309 10.6021 115.468 11.5399 115.622 11.5766C115.899 11.6427 115.884 11.632 110.288 7.71587C106.403 4.99778 106.03 4.73256 105.625 4.40153C104.984 3.87847 104.91 3.86524 102.663 3.86984C100.182 3.87496 99.0423 3.73676 97.7433 3.27352C96.4996 2.83009 95.9049 2.36941 95.159 1.27168C94.9136 0.91059 94.58 0.474552 94.4176 0.302784C94.0743 -0.0605695 94.1197 -0.0564747 92.2195 0.104032ZM4.28438 5.87432C2.92343 6.1685 1.94482 6.76745 1.20888 7.75668C0.586334 8.59343 0.291709 9.2933 0.107957 10.372C0.00142611 10.997 -0.0091399 12.0542 0.00497258 20.6479C0.0146704 26.5194 0.0493364 30.5066 0.0945687 30.9491C0.361548 33.5593 1.4134 35.1418 3.57811 36.1898C6.02984 37.3767 10.1856 37.199 13.2947 35.7743C13.6927 35.5919 14.0698 35.4268 14.1326 35.4073C14.1954 35.3878 14.5211 35.5016 14.8563 35.6601C15.694 36.056 16.3938 36.3026 17.379 36.549C18.7528 36.8925 19.3178 36.9547 21.0384 36.9523C22.4126 36.9504 22.7322 36.9277 23.3725 36.7864C24.4342 36.5522 25.5459 36.1687 26.4843 35.7132L27.2984 35.318L27.8956 35.637C29.4719 36.4791 31.5992 36.9495 33.812 36.9452C35.9427 36.9411 37.8988 36.5019 39.7718 35.607L40.3978 35.3079L41.1296 35.679C43.6377 36.9507 46.5997 37.2993 49.7229 36.6904C50.7595 36.4883 51.7092 36.1762 52.6475 35.7296L53.4262 35.3589L54.0588 35.6584C55.8856 36.5237 57.0449 36.8466 58.8749 36.9994C61.2901 37.2011 64.2747 36.5918 65.9486 35.5553C66.3209 35.3248 66.3685 35.313 66.6 35.3942C66.7373 35.4424 66.9993 35.5707 67.1822 35.6794C67.9804 36.1538 69.6433 36.6993 70.8533 36.8836C72.2599 37.0978 74.4433 36.9891 76.1133 36.6216C77.0486 36.4159 77.5926 36.2252 78.5514 35.7672L79.3975 35.363L80.035 35.6943C81.8297 36.627 83.9006 37.0451 86.3504 36.9694C88.3313 36.9082 89.7822 36.5604 91.5104 35.7323L92.2884 35.3595L93.0664 35.732C94.8757 36.5984 96.6756 36.9964 98.7784 36.9952C100.971 36.9939 102.938 36.5516 104.676 35.6689L105.266 35.3692L106.177 35.8088C107.267 36.3347 108.034 36.5851 109.139 36.7759C110.834 37.0687 112.542 36.8971 114.069 36.2804C115.477 35.7115 116.564 34.664 117.315 33.1521C117.983 31.8076 118.27 30.4608 118.276 28.6383C118.286 25.847 117.517 23.6493 116.01 22.1601C115.391 21.5489 115.19 21.3991 114.036 20.689C111.939 19.3985 111.4 18.7771 111.396 17.6471C111.393 16.7284 111.878 16.0993 112.533 16.1718C112.702 16.1904 112.924 16.2617 113.028 16.3302C113.239 16.4696 113.469 16.925 113.538 17.3391L113.584 17.6133H115.095H116.605V17.1707C116.605 16.0723 116.139 14.8881 115.417 14.1503C114.081 12.7861 111.662 12.5004 110.088 13.521C109.212 14.0891 108.393 15.3333 108.105 16.5342C107.927 17.2751 107.944 18.47 108.142 19.1123C108.598 20.5953 109.555 21.8112 110.991 22.732C113.657 24.441 114.078 24.876 114.577 26.4364C115.185 28.337 114.983 30.5765 114.08 31.9552C113.681 32.5654 113.398 32.8121 112.743 33.1216C111.066 33.9149 108.594 33.5752 106.332 32.2403C106.048 32.0725 105.707 31.8388 105.574 31.721C105.441 31.6032 105.297 31.5068 105.255 31.5068C105.212 31.5068 104.94 31.6865 104.649 31.9061C103.607 32.6939 101.92 33.4278 100.503 33.7095C99.7296 33.8632 97.6974 33.8415 96.884 33.6708C95.5127 33.3831 94.1503 32.7785 93.0096 31.9514L92.3256 31.4554L91.9632 31.7222C90.0071 33.1627 88.2185 33.7884 86.0644 33.7859C84.5918 33.7841 83.2754 33.5276 81.9023 32.9749C81.3202 32.7405 80.1347 32.0987 79.5749 31.7148L79.2732 31.5079L78.5617 31.9898C76.7971 33.1849 74.797 33.848 72.9651 33.8452C70.8027 33.8419 68.6059 33.0872 66.675 31.6842L66.3556 31.4521L65.7721 31.8892C64.1794 33.0824 61.8351 33.8468 59.7685 33.8468C58.4987 33.8468 56.7237 33.3953 55.4431 32.7467C55.1091 32.5777 54.5103 32.2193 54.1123 31.9506L53.3886 31.462L52.8096 31.8861C51.3211 32.9765 49.6143 33.6066 47.6607 33.7869C46.8494 33.8618 46.5723 33.8574 45.779 33.7568C43.947 33.5246 42.3026 32.8634 40.8799 31.7868C40.4122 31.4329 40.3874 31.4233 40.2329 31.5381C38.7697 32.6246 37.2929 33.2839 35.6089 33.6023C34.6571 33.7823 32.5611 33.7825 31.7133 33.6027C30.3957 33.3233 29.3337 32.853 27.9867 31.9527L27.2222 31.4417L26.989 31.6476C25.973 32.5444 24.1075 33.3806 22.4859 33.6659C21.638 33.8151 20.0966 33.8343 19.212 33.7067C17.5171 33.4622 15.8893 32.7614 14.6802 31.7556L14.2756 31.4191L13.7968 31.7814C12.376 32.8565 10.1898 33.5748 8.3372 33.5753C6.9439 33.5757 6.20223 33.296 5.36482 32.4547C4.56642 31.6524 4.26513 30.7916 4.15911 29.0094C4.12473 28.4324 4.11446 23.8965 4.13624 18.9295C4.17561 9.94908 4.17669 9.89709 4.32716 9.6062C4.42138 9.42398 4.61035 9.231 4.8284 9.09433C5.132 8.90406 5.24686 8.87496 5.69563 8.87496C6.34864 8.87496 6.71188 9.08695 6.97147 9.61966C7.12729 9.93943 7.1464 10.0928 7.17925 11.2881L7.21544 12.6043L9.23316 12.6237L11.251 12.6432L11.213 11.4538C11.169 10.0727 11.0307 9.42266 10.5864 8.50898C10.2533 7.82395 9.77631 7.23998 9.16947 6.77447C8.21533 6.04243 7.51535 5.83249 5.91275 5.79776C5.11145 5.78035 4.60991 5.80397 4.28438 5.87432ZM48.2364 6.83736C48.2059 6.91772 48.2534 28.2704 48.2854 28.8561C48.2859 28.8661 49.2357 28.8744 50.396 28.8744H52.5056L52.4672 25.9311C52.4459 24.3124 52.4458 22.1727 52.4669 21.1763L52.5051 19.3648L53.7067 19.3848L54.9084 19.4048L54.927 24.1396L54.9457 28.8744H57.0439H59.1421L59.1421 24.6515C59.1421 22.3289 59.1204 17.3437 59.094 13.5732L59.0459 6.7178H57.007H54.968L54.9179 10.9412C54.8904 13.2641 54.8488 15.2384 54.8254 15.3287C54.7858 15.4817 54.7435 15.4927 54.1943 15.4922C53.8706 15.492 53.3452 15.4713 53.0267 15.4464L52.4478 15.4009L52.4452 15.1361C52.4438 14.9903 52.4357 13.0367 52.4271 10.7945L52.4116 6.7178H50.3467C48.5023 6.7178 48.277 6.7306 48.2364 6.83736ZM12.1729 17.9423V29.0206H14.0184H15.8639L15.8634 18.5456C15.8632 12.7844 15.8421 7.79909 15.8165 7.46732L15.7701 6.86405H13.9715H12.1729V17.9423ZM78.7791 12.0741C78.8055 14.9397 78.8272 19.892 78.8272 23.0793L78.8272 28.8744H79.8297H80.8323L81.1735 28.4356C81.361 28.1943 81.5425 27.9969 81.5766 27.9969C81.6107 27.9969 81.7317 28.0759 81.8453 28.1726C82.4532 28.6894 83.4965 29.04 84.4346 29.0426C86.0639 29.0471 87.1697 28.2406 87.8233 26.571C88.3682 25.1791 88.5672 23.364 88.5006 20.392C88.4357 17.4925 88.2011 16.0622 87.5832 14.798C86.9143 13.4293 85.9236 12.8633 84.3637 12.9586C83.9656 12.983 83.4608 13.0527 83.2419 13.1135C82.5311 13.311 82.5997 13.6465 82.6141 10.0449L82.6268 6.86405H80.6789H78.7311L78.7791 12.0741ZM117.257 11.5672C116.604 11.9115 116.388 12.255 116.388 12.9472C116.388 13.8326 116.961 14.3958 117.861 14.3958C118.728 14.3958 119.355 13.7818 119.355 12.9341C119.355 12.3232 119.024 11.8179 118.47 11.5841C118.144 11.4461 117.503 11.4373 117.257 11.5672ZM118.341 11.8915C118.825 12.1375 119.097 12.7917 118.923 13.2926C118.592 14.2437 117.395 14.3955 116.914 13.5473C116.343 12.5417 117.341 11.3839 118.341 11.8915ZM117.257 12.9333V13.7377H117.438C117.607 13.7377 117.618 13.7136 117.618 13.3684C117.618 13.0526 117.635 13.0086 117.733 13.0642C117.797 13.0999 117.92 13.2579 118.007 13.4152C118.104 13.5904 118.227 13.7102 118.326 13.7245C118.529 13.7539 118.527 13.7264 118.306 13.3721C118.096 13.0353 118.09 13.0065 118.23 13.0065C118.358 13.0065 118.559 12.7283 118.559 12.5514C118.559 12.2656 118.302 12.129 117.763 12.129H117.257V12.9333ZM118.161 12.5677C118.161 12.7262 118.125 12.7535 117.89 12.7732C117.629 12.795 117.618 12.7867 117.618 12.5677C117.618 12.3487 117.629 12.3405 117.89 12.3622C118.125 12.3819 118.161 12.4093 118.161 12.5677ZM20.9683 12.5723C18.8338 12.9051 17.4928 14.4342 17.0552 17.0344C16.9001 17.9561 16.8379 21.0539 16.9387 22.8416C17.0571 24.9444 17.3905 26.0703 18.2181 27.1619C19.1114 28.3403 20.4212 29.0219 21.7878 29.0195C23.923 29.0159 25.4538 27.7892 26.2895 25.4125C26.414 25.0584 26.499 24.7516 26.4784 24.7307C26.4342 24.6861 24.5886 24.3236 24.3468 24.312C24.2112 24.3056 24.1513 24.378 24.0161 24.7122C23.7815 25.2917 23.507 25.6216 23.0809 25.8361C22.4788 26.1393 21.7514 26.0571 21.3037 25.6351C20.8879 25.2432 20.6669 24.4583 20.5944 23.1167L20.546 22.2218L23.5062 22.2026L26.4663 22.1835L26.4521 20.5227C26.4361 18.6459 26.3536 17.7005 26.1087 16.5895C25.6353 14.4413 24.7467 13.3621 22.9563 12.7607C22.3227 12.5479 21.5775 12.4772 20.9683 12.5723ZM30.8448 12.6038C29.6821 12.8691 28.5981 13.6976 28.1173 14.6883C27.8562 15.2265 27.6065 16.1002 27.5738 16.5895L27.5519 16.9186L29.0501 16.9383L30.5482 16.9581L30.594 16.6824C30.7181 15.9359 30.9869 15.5817 31.4796 15.5149C32.4402 15.3847 32.7556 16.0541 32.6579 18.0155L32.6179 18.8198L32.1113 18.8761C30.5625 19.0479 29.1315 19.6906 28.309 20.5837C27.3381 21.6381 26.9539 22.8998 27.0314 24.7794C27.0984 26.4048 27.4997 27.5418 28.2908 28.3477C28.7783 28.8442 29.285 29.0798 29.9965 29.1406C30.9934 29.2257 31.9934 28.8905 32.5901 28.2711C32.7354 28.1203 32.888 27.9969 32.9292 27.9969C32.9704 27.9969 33.0746 28.2108 33.1607 28.4722L33.3172 28.9475H34.9119H36.5067L36.4608 28.783C36.3121 28.2503 36.2699 26.5305 36.284 21.5985C36.2984 16.5763 36.2901 16.1506 36.1682 15.6755C35.7653 14.1065 34.759 13.0898 33.1969 12.6736C32.5715 12.507 31.4191 12.4728 30.8448 12.6038ZM64.0204 12.5981C63.0906 12.8132 62.4279 13.1891 61.8476 13.8306C61.2388 14.5037 60.8288 15.4712 60.6955 16.549L60.6453 16.9552H62.1652H63.6851L63.7364 16.6095C63.8562 15.8025 64.2623 15.432 64.9298 15.5208C65.3223 15.5731 65.6088 15.8501 65.7263 16.2908C65.7707 16.4573 65.7956 17.0628 65.7841 17.699L65.7641 18.8151L65.0766 18.9077C62.6216 19.2384 61.0353 20.4227 60.3954 22.4029C60.2325 22.9069 60.2019 23.1497 60.1742 24.1579C60.1352 25.575 60.2794 26.4412 60.696 27.2931C61.2734 28.4738 62.0696 29.0622 63.1978 29.142C64.1912 29.2123 64.995 28.9432 65.6553 28.3191C65.8428 28.1419 66.0324 27.9969 66.0764 27.9969C66.1205 27.9969 66.1925 28.1315 66.2364 28.2961C66.2802 28.4606 66.3518 28.6745 66.3955 28.7714L66.4749 28.9475H68.0604C69.5367 28.9475 69.6431 28.9387 69.6074 28.8195C69.4484 28.2881 69.4199 27.2624 69.4195 22.0237C69.4189 15.6759 69.4197 15.6894 68.9474 14.7136C68.4811 13.7504 67.5065 12.9886 66.3431 12.6777C65.7251 12.5126 64.5623 12.4727 64.0204 12.5981ZM42.888 12.852C42.3895 12.9962 41.7708 13.3268 41.2152 13.746C41.0079 13.9023 40.8207 14.0302 40.799 14.0302C40.7774 14.0302 40.7597 13.767 40.7597 13.4452V12.8602H39.059H37.3583V20.8673V28.8744H39.1675H40.9768V23.1474C40.9768 18.2421 40.9926 17.3668 41.0866 17.0471C41.2842 16.3748 41.8193 16.1122 42.2947 16.4542C42.7667 16.7938 42.7476 16.5324 42.7727 23.0062L42.7954 28.8744H44.7358H46.6761L46.7221 28.642C46.802 28.2387 46.7687 15.6658 46.6862 15.0602C46.6447 14.7552 46.5521 14.3739 46.4804 14.213C45.9559 13.0352 44.3533 12.4281 42.888 12.852ZM92.9246 12.8985C90.7789 13.33 89.6939 15.1668 89.4676 18.7508C89.1064 24.4718 89.935 27.6173 92.0847 28.6861C93.9133 29.5954 96.4243 29.159 97.4922 27.7464C98.5214 26.3849 98.9799 24.2656 98.9723 20.9039C98.9678 18.8514 98.863 17.7831 98.5453 16.5474C98.0109 14.4694 96.8306 13.1024 95.3605 12.8592C94.7659 12.7608 93.5083 12.7811 92.9246 12.8985ZM77.0364 13.0481C76.1347 13.2478 75.0585 13.8017 74.4262 14.3916C74.2944 14.5146 74.1722 14.6152 74.1548 14.6152C74.1373 14.6152 74.1231 14.2697 74.1231 13.8474V13.0796H72.8313C72.1208 13.0796 71.2904 13.0583 70.9858 13.0323L70.4321 12.985V20.2604C70.4321 24.2618 70.4533 27.8369 70.4792 28.205L70.5261 28.8744H72.3207H74.1151L74.1372 23.7008L74.1593 18.5273L74.3605 18.1134C74.8207 17.1666 75.9348 16.5944 77.3255 16.5908L77.814 16.5895V14.7614V12.9333L77.6512 12.9407C77.5617 12.9447 77.285 12.9931 77.0364 13.0481ZM106.473 13.0076C105.715 13.1403 104.664 13.6507 103.965 14.2256C103.753 14.3996 103.565 14.5421 103.546 14.5421C103.527 14.5421 103.502 14.2047 103.49 13.7925L103.47 13.043H101.642C100.637 13.043 99.815 13.0677 99.815 13.0979C99.815 13.128 99.815 16.6736 99.815 20.977V28.8012H101.703H103.591L103.572 23.5912L103.554 18.3811L103.72 18.0318C104.128 17.1715 105.34 16.5942 106.745 16.5908L107.269 16.5895V14.7614V12.9333L107.034 12.942C106.905 12.9466 106.652 12.9762 106.473 13.0076ZM83.8228 15.3979C84.3609 15.7726 84.6262 16.5903 84.8013 18.4137C84.9215 19.6657 84.9371 22.4303 84.8319 23.8246C84.7197 25.3099 84.3687 26.4895 83.9509 26.7852C83.7432 26.9322 83.1768 26.9336 82.9705 26.7876C82.6136 26.535 82.6001 26.3269 82.5903 20.9604C82.5853 18.2146 82.5833 15.8924 82.5859 15.7999C82.5885 15.7075 82.6768 15.5513 82.7821 15.4526C83.0171 15.2326 83.5455 15.2048 83.8228 15.3979ZM94.7987 16.2569C95.281 16.7739 95.3964 17.7399 95.3979 21.2695C95.3996 25.288 95.214 26.3665 94.4973 26.5024C94.2234 26.5543 93.7702 26.432 93.5653 26.251C93.3504 26.061 93.1778 25.6563 93.0456 25.0317C92.94 24.5331 92.924 24.0294 92.9334 21.4924C92.9444 18.5424 92.9893 17.8041 93.1966 17.1669C93.447 16.3977 93.9634 15.8787 94.3872 15.9705C94.4867 15.992 94.6719 16.121 94.7987 16.2569ZM22.4773 16.2992C22.8565 16.6356 22.9616 17.0365 23.0087 18.3262L23.0494 19.4414H21.8088H20.568L20.5686 18.6187C20.5698 16.7355 20.8997 16.0777 21.8427 16.0777C22.1679 16.0777 22.2662 16.112 22.4773 16.2992ZM32.7304 21.3609C32.7326 21.4112 32.731 22.423 32.7266 23.6094L32.7188 25.7666L32.5266 25.9693C32.1283 26.3895 31.3203 26.4186 30.9325 26.0268C30.6741 25.7656 30.5479 25.3436 30.5004 24.5814C30.4309 23.4677 30.7309 22.5577 31.365 21.9584C31.8755 21.4759 32.7194 21.1066 32.7304 21.3609ZM65.8727 23.4941V25.7188L65.6894 25.939C65.4561 26.2192 65.0807 26.3455 64.6561 26.2867C63.9337 26.1866 63.6931 25.766 63.6439 24.5174C63.6103 23.6667 63.7027 23.1537 63.9913 22.5879C64.2425 22.0953 64.8257 21.5736 65.3365 21.3845C65.9158 21.17 65.8727 21.0002 65.8727 23.4941Z" fill="#A3484F"/>
</svg>
