<?xml version="1.0" encoding="utf-8"?>
<!-- Generator: Adobe Illustrator 24.3.0, SVG Export Plug-In . SVG Version: 6.00 Build 0)  -->
<svg version="1.1" xmlns="http://www.w3.org/2000/svg" xmlns:xlink="http://www.w3.org/1999/xlink" x="0px" y="0px"
	 viewBox="0 0 1800 610" style="enable-background:new 0 0 1800 610;" xml:space="preserve">
<style type="text/css">
	.st0{fill:#F0F6FE;}
	.st1{fill:#FFFFFF;}
	.st2{fill:none;stroke:#FFFFFF;stroke-width:1.436;stroke-miterlimit:10;}
</style>
<g id="Layer_1">
	<g>
		<rect class="st0" width="1800" height="610"/>
	</g>
</g>
<g id="Layer_2">
	<g>
		<g>
			<path class="st1" d="M-0.1,459.7v-1.4c68.1,0,132.1-26.5,180.3-74.7c48.2-48.2,74.7-112.2,74.7-180.3c0-40.4-9.2-79.1-27.3-114.9
				c-17.3-34.2-42.5-64.5-73-87.8l0.9-1.1c30.7,23.4,56.1,54,73.5,88.3c18.2,36,27.5,74.9,27.5,115.5c0,68.5-26.7,132.9-75.1,181.3
				C132.7,433,68.4,459.7-0.1,459.7z"/>
		</g>
		<g>
			<path class="st1" d="M-0.1,437.2v-1.4c62.1,0,120.5-24.2,164.4-68.1s68.1-102.3,68.1-164.4c0-42-11.3-83.2-32.7-119
				c-20.8-34.8-50.5-63.8-85.8-83.7l0.7-1.3c35.6,20,65.4,49.1,86.3,84.2c21.6,36.1,32.9,77.5,32.9,119.8
				c0,62.5-24.3,121.2-68.5,165.4C121.1,412.9,62.4,437.2-0.1,437.2z"/>
		</g>
		<g>
			<path class="st1" d="M-0.1,414.7v-1.4c115.8,0,210-94.2,210-210c0-47-15.2-91.4-43.9-128.5C138.1,38.9,98.8,12.6,55.2,0.7
				l0.4-1.4c43.9,12,83.5,38.4,111.5,74.6c28.9,37.3,44.2,82.1,44.2,129.4C211.3,319.9,116.5,414.7-0.1,414.7z"/>
		</g>
		<g>
			<path class="st1" d="M-0.1,392.2v-1.4c103.4,0,187.5-84.1,187.5-187.5c0-103.4-84.1-187.5-187.5-187.5v-1.4
				c104.2,0,188.9,84.8,188.9,188.9S104.1,392.2-0.1,392.2z"/>
		</g>
		<g>
			<path class="st1" d="M-0.1,369.8v-1.4c91,0,165-74,165-165s-74-165-165-165v-1.4c91.8,0,166.4,74.7,166.4,166.4
				C166.3,295.1,91.7,369.8-0.1,369.8z"/>
		</g>
		<g>
			<path class="st1" d="M-0.1,347.3v-1.4c78.6,0,142.5-63.9,142.5-142.5S78.5,60.8-0.1,60.8v-1.4c79.4,0,144,64.6,144,144
				C143.9,282.7,79.3,347.3-0.1,347.3z"/>
		</g>
		<g>
			<path class="st1" d="M-0.1,324.8v-1.4c66.2,0,120.1-53.9,120.1-120.1c0-66.2-53.9-120.1-120.1-120.1v-1.4
				c67,0,121.5,54.5,121.5,121.5S66.9,324.8-0.1,324.8z"/>
		</g>
		<g>
			<path class="st1" d="M-0.1,302.3v-1.4c53.8,0,97.6-43.8,97.6-97.6s-43.8-97.6-97.6-97.6v-1.4c54.6,0,99,44.4,99,99
				C98.9,257.9,54.5,302.3-0.1,302.3z"/>
		</g>
		<g>
			<path class="st1" d="M-0.1,279.8v-1.4c41.4,0,75.1-33.7,75.1-75.1c0-41.4-33.7-75.1-75.1-75.1v-1.4c42.2,0,76.5,34.3,76.5,76.5
				S42.1,279.8-0.1,279.8z"/>
		</g>
		<g>
			<path class="st1" d="M-0.1,257.4v-1.4c29,0,52.6-23.6,52.6-52.6s-23.6-52.6-52.6-52.6v-1.4c29.8,0,54.1,24.2,54.1,54.1
				C53.9,233.1,29.7,257.4-0.1,257.4z"/>
		</g>
	</g>
	<g>
		<rect x="255" class="st1" width="1.4" height="459.3"/>
	</g>
	<g>
		<g>
			<g>
				<path class="st1" d="M1790.9,610.2c-12.4-57.3-34.4-111.6-65.4-161.6c-30.4-49-68.4-92.3-113.2-128.8
					c-45.1-36.8-95.6-65.5-150.1-85.3c-56.4-20.5-115.7-30.8-176.2-30.8s-119.8,10.4-176.2,30.8c-54.5,19.8-105,48.5-150.1,85.3
					c-44.7,36.5-82.8,79.8-113.2,128.8c-30.9,49.9-52.9,104.3-65.4,161.6l-1.4-0.3c12.5-57.4,34.5-111.9,65.5-162
					c30.4-49.1,68.6-92.6,113.5-129.2c45.2-36.9,95.9-65.7,150.5-85.5c56.5-20.5,116-30.9,176.7-30.9s120.2,10.4,176.7,30.9
					c54.6,19.8,105.3,48.6,150.5,85.5c44.9,36.6,83,80.1,113.5,129.2c31,50.1,53.1,104.6,65.5,162L1790.9,610.2z"/>
			</g>
			<g>
				<path class="st1" d="M1744.2,610.2c-12.2-51.1-32.8-99.4-61.2-143.8c-27.9-43.6-62.6-82.1-103.1-114.4
					c-40.9-32.6-86.4-58.1-135.5-75.6c-50.7-18.1-104-27.3-158.4-27.3s-107.7,9.2-158.4,27.3c-49,17.5-94.6,42.9-135.5,75.6
					c-40.5,32.3-75.2,70.8-103.1,114.4c-28.4,44.3-49,92.7-61.2,143.8l-1.4-0.3c12.3-51.2,32.9-99.7,61.4-144.2
					c28-43.7,62.8-82.3,103.4-114.7c41-32.7,86.7-58.2,135.9-75.8c50.9-18.2,104.3-27.4,158.9-27.4s108,9.2,158.9,27.4
					c49.2,17.6,94.9,43.1,135.9,75.8c40.6,32.4,75.4,71,103.4,114.7c28.5,44.5,49.2,93,61.4,144.2L1744.2,610.2z"/>
			</g>
			<g>
				<path class="st1" d="M1697.3,610.2c-12-44.8-31.2-87.2-57-126c-25.5-38.1-56.7-71.8-92.9-100c-36.6-28.5-77.2-50.6-120.8-65.9
					c-45.1-15.8-92.4-23.8-140.5-23.8s-95.5,8-140.5,23.8c-43.6,15.2-84.2,37.4-120.8,65.9c-36.2,28.2-67.5,61.8-92.9,100
					c-25.9,38.7-45,81.1-57,126l-1.4-0.4c12-45,31.3-87.5,57.2-126.4c25.5-38.3,56.9-72,93.2-100.3c36.7-28.6,77.5-50.8,121.2-66.1
					c45.2-15.8,92.7-23.8,141-23.8s95.8,8,141,23.8c43.7,15.3,84.5,37.5,121.2,66.1c36.3,28.3,67.7,62,93.2,100.3
					c26,38.9,45.2,81.4,57.2,126.4L1697.3,610.2z"/>
			</g>
			<g>
				<path class="st1" d="M922.1,610.2l-1.4-0.4c11.7-38.8,29.5-75.3,52.8-108.5c23-32.8,51-61.7,83-85.8
					c66.6-50.2,145.9-76.7,229.5-76.7c83,0,162,26.2,228.3,75.8c31.9,23.9,59.8,52.4,82.9,84.9c23.4,32.9,41.3,69,53.2,107.4
					l-1.4,0.4c-11.9-38.2-29.7-74.2-53-107c-23-32.3-50.8-60.8-82.6-84.6c-66.1-49.4-144.7-75.5-227.4-75.5
					c-83.3,0-162.3,26.4-228.7,76.4c-31.9,24.1-59.7,52.8-82.7,85.5C951.4,535.2,933.7,571.6,922.1,610.2z"/>
			</g>
			<g>
				<path class="st1" d="M1602.2,610.2c-46.8-134.4-173.8-224.6-316.1-224.6c-142.3,0-269.4,90.3-316.1,224.6l-1.4-0.5
					c47-134.9,174.5-225.6,317.5-225.6c142.9,0,270.5,90.7,317.5,225.6L1602.2,610.2z"/>
			</g>
			<g>
				<path class="st1" d="M1018.5,610.3l-1.3-0.5c21.7-52.6,58-97.5,105.2-129.7c48.3-33,104.9-50.4,163.6-50.4
					c58.2,0,114.4,17.2,162.5,49.6c46.9,31.7,83.3,75.9,105.3,127.9l-1.3,0.6c-21.9-51.7-58.1-95.7-104.8-127.2
					c-47.8-32.3-103.7-49.4-161.7-49.4c-58.4,0-114.7,17.3-162.8,50.2C1076.3,513.3,1040.1,557.9,1018.5,610.3z"/>
			</g>
			<g>
				<path class="st1" d="M1503.5,610.3c-20-39.6-50.5-73-88.2-96.6c-38.7-24.3-83.4-37.1-129.3-37.1s-90.6,12.8-129.3,37.1
					c-37.7,23.6-68.1,57-88.2,96.6l-1.3-0.6c20.2-39.8,50.8-73.4,88.7-97.2c38.9-24.4,83.9-37.3,130.1-37.3
					c46.2,0,91.2,12.9,130.1,37.3c37.9,23.8,68.5,57.4,88.7,97.2L1503.5,610.3z"/>
			</g>
			<g>
				<path class="st1" d="M1121.1,610.4l-1.2-0.8c37.2-55.7,99.3-89,166.2-89c66.4,0,128.3,32.9,165.5,88l-1.2,0.8
					c-37-54.7-98.4-87.4-164.3-87.4C1219.6,522.1,1158,555.1,1121.1,610.4z"/>
			</g>
			<g>
				<path class="st1" d="M1178.1,612.3l-1-1c29.1-29.1,67.8-45.1,109-45.1c40.2,0,78.3,15.4,107.2,43.4l-1,1
					c-28.6-27.7-66.3-42.9-106.2-42.9C1245.2,567.6,1206.9,583.4,1178.1,612.3z"/>
			</g>
		</g>
		<g>
			<rect x="1285.3" y="202.9" class="st1" width="1.4" height="407.1"/>
		</g>
	</g>
	<g>
		<rect x="511.3" class="st1" width="1.4" height="459"/>
	</g>
	<g>
		<rect x="768" class="st1" width="1.4" height="610"/>
	</g>
	<g>
		<line class="st2" x1="512" y1="459" x2="639.2" y2="331.1"/>
		<line class="st2" x1="555.1" y1="459" x2="682.2" y2="331.1"/>
		<line class="st2" x1="598.2" y1="459" x2="725.3" y2="331.1"/>
		<line class="st2" x1="641.2" y1="459" x2="768.4" y2="331.1"/>
	</g>
	<g>
		<g>
			
				<rect x="485.5" y="266.2" transform="matrix(0.7047 -0.7095 0.7095 0.7047 -19.3734 487.1866)" class="st1" width="180.3" height="1.4"/>
		</g>
		<g>
			
				<rect x="528.5" y="266.2" transform="matrix(0.7047 -0.7095 0.7095 0.7047 -6.6595 517.7351)" class="st1" width="180.3" height="1.4"/>
		</g>
		<g>
			
				<rect x="571.6" y="266.2" transform="matrix(0.7047 -0.7095 0.7095 0.7047 6.0544 548.2836)" class="st1" width="180.3" height="1.4"/>
		</g>
		<g>
			
				<rect x="614.6" y="266.2" transform="matrix(0.7047 -0.7095 0.7095 0.7047 18.7683 578.8321)" class="st1" width="180.3" height="1.4"/>
		</g>
	</g>
	<g>
		<rect x="-0.1" y="202.2" class="st1" width="1800.1" height="1.4"/>
	</g>
	<g>
		<rect x="-0.1" y="458.5" class="st1" width="768.5" height="1.4"/>
	</g>
	<g>
		<g>
			<g>
				<path class="st1" d="M768.7,529.6c-38.6,0-58.2-11-77.2-21.6c-18.8-10.5-38.3-21.4-76.5-21.4s-57.7,10.9-76.5,21.4
					c-19,10.6-38.6,21.6-77.2,21.6c-38.6,0-58.2-11-77.2-21.6c-18.8-10.5-38.3-21.4-76.5-21.4c-38.2,0-57.7,10.9-76.5,21.4
					c-19,10.6-38.6,21.6-77.2,21.6c-38.6,0-58.2-11-77.2-21.6C57.7,497.4,38.2,486.5,0,486.5v-1.4c38.6,0,58.2,11,77.2,21.6
					c18.8,10.5,38.3,21.4,76.5,21.4c38.2,0,57.7-10.9,76.5-21.4c19-10.6,38.6-21.6,77.2-21.6s58.2,11,77.2,21.6
					c18.8,10.5,38.3,21.4,76.5,21.4c38.3,0,57.7-10.9,76.5-21.4c19-10.6,38.6-21.6,77.2-21.6s58.2,11,77.2,21.6
					c18.8,10.5,38.3,21.4,76.5,21.4V529.6z"/>
			</g>
		</g>
		<g>
			<g>
				<path class="st1" d="M768.7,563.1c-38.6,0-58.2-11-77.2-21.6C672.7,530.9,653.2,520,615,520s-57.7,10.9-76.5,21.4
					c-19,10.6-38.6,21.6-77.2,21.6c-38.6,0-58.2-11-77.2-21.6c-18.8-10.5-38.3-21.4-76.5-21.4c-38.2,0-57.7,10.9-76.5,21.4
					c-19,10.6-38.6,21.6-77.2,21.6c-38.6,0-58.2-11-77.2-21.6C57.7,530.9,38.2,520,0,520v-1.4c38.6,0,58.2,11,77.2,21.6
					c18.8,10.5,38.3,21.4,76.5,21.4c38.2,0,57.7-10.9,76.5-21.4c19-10.6,38.6-21.6,77.2-21.6s58.2,11,77.2,21.6
					c18.8,10.5,38.3,21.4,76.5,21.4c38.3,0,57.7-10.9,76.5-21.4c19-10.6,38.6-21.6,77.2-21.6s58.2,11,77.2,21.6
					c18.8,10.5,38.3,21.4,76.5,21.4V563.1z"/>
			</g>
		</g>
		<g>
			<g>
				<path class="st1" d="M768.7,596.5c-38.6,0-58.2-11-77.2-21.6c-18.8-10.5-38.3-21.4-76.5-21.4s-57.7,10.9-76.5,21.4
					c-19,10.6-38.6,21.6-77.2,21.6c-38.6,0-58.2-11-77.2-21.6c-18.8-10.5-38.3-21.4-76.5-21.4c-38.2,0-57.7,10.9-76.5,21.4
					c-19,10.6-38.6,21.6-77.2,21.6c-38.6,0-58.2-11-77.2-21.6C57.7,564.4,38.2,553.5,0,553.5V552c38.6,0,58.2,11,77.2,21.6
					c18.8,10.5,38.3,21.4,76.5,21.4c38.2,0,57.7-10.9,76.5-21.4c19-10.6,38.6-21.6,77.2-21.6s58.2,11,77.2,21.6
					c18.8,10.5,38.3,21.4,76.5,21.4c38.3,0,57.7-10.9,76.5-21.4c19-10.6,38.6-21.6,77.2-21.6s58.2,11,77.2,21.6
					c18.8,10.5,38.3,21.4,76.5,21.4V596.5z"/>
			</g>
		</g>
		<g>
			<g>
				<path class="st1" d="M534.4,610.6l-0.7-1.2c1.3-0.7,2.7-1.5,4-2.3c19-10.6,38.6-21.6,77.2-21.6s58.2,11,77.2,21.6l-0.7,1.2
					c-18.8-10.5-38.3-21.4-76.5-21.4s-57.7,10.9-76.5,21.4C537.1,609.1,535.8,609.9,534.4,610.6z"/>
			</g>
			<g>
				<path class="st1" d="M226.9,610.6l-0.7-1.2c1.3-0.7,2.7-1.5,4-2.3c19-10.6,38.6-21.6,77.2-21.6s58.2,11,77.2,21.6l-0.7,1.2
					c-18.8-10.5-38.3-21.4-76.5-21.4s-57.7,10.9-76.5,21.4C229.6,609.1,228.3,609.9,226.9,610.6z"/>
			</g>
			<g>
				<path class="st1" d="M76.5,608.4C57.7,597.8,38.2,586.9,0,586.9v-1.4c38.6,0,58.2,11,77.2,21.6L76.5,608.4z"/>
			</g>
		</g>
	</g>
	<g>
		<g>
			<g>
				<path class="st1" d="M1800,13.8c-30.9,0-49.2-6.9-63-13.7l0.6-1.3c13.7,6.7,31.8,13.6,62.4,13.6V13.8z"/>
			</g>
			<g>
				<path class="st1" d="M1490,13.8c-30.9,0-49.2-6.9-63-13.7l0.6-1.3c13.7,6.7,31.8,13.6,62.4,13.6c30.1,0,47.8-6.6,61.1-13
					l0.6,1.3C1538.2,7.1,1520.4,13.8,1490,13.8z"/>
			</g>
			<g>
				<path class="st1" d="M1180,13.8c-30.9,0-49.2-6.9-63-13.7l0.6-1.3c13.7,6.7,31.8,13.6,62.4,13.6c30.1,0,47.8-6.6,61.1-13
					l0.6,1.3C1228.2,7.1,1210.3,13.8,1180,13.8z"/>
			</g>
		</g>
		<g>
			<g>
				<path class="st1" d="M1800,47.2c-38.9,0-58.7-11-77.9-21.6c-19-10.5-38.6-21.4-77.2-21.4s-58.2,10.9-77.2,21.4
					c-19.1,10.6-38.9,21.6-77.9,21.6c-38.9,0-58.7-11-77.9-21.6c-19-10.5-38.6-21.4-77.2-21.4s-58.2,10.9-77.2,21.4
					c-19.1,10.6-38.9,21.6-77.9,21.6c-38.9,0-58.7-11-77.9-21.6c-19-10.5-38.6-21.4-77.2-21.4V2.7c38.9,0,58.7,11,77.8,21.6
					c19,10.5,38.6,21.4,77.2,21.4s58.2-10.9,77.2-21.4c19.1-10.6,38.9-21.6,77.9-21.6c38.9,0,58.7,11,77.9,21.6
					c19,10.5,38.6,21.4,77.2,21.4c38.6,0,58.2-10.9,77.2-21.4c19.1-10.6,38.9-21.6,77.9-21.6s58.7,11,77.9,21.6
					c19,10.5,38.6,21.4,77.2,21.4V47.2z"/>
			</g>
		</g>
		<g>
			<g>
				<path class="st1" d="M1800,80.7c-38.9,0-58.7-11-77.9-21.6c-19-10.5-38.6-21.4-77.2-21.4s-58.2,10.9-77.2,21.4
					c-19.1,10.6-38.9,21.6-77.9,21.6c-38.9,0-58.7-11-77.9-21.6c-19-10.5-38.6-21.4-77.2-21.4s-58.2,10.9-77.2,21.4
					c-19.1,10.6-38.9,21.6-77.9,21.6c-38.9,0-58.7-11-77.9-21.6c-19-10.5-38.6-21.4-77.2-21.4v-1.4c38.9,0,58.7,11,77.8,21.6
					c19,10.5,38.6,21.4,77.2,21.4s58.2-10.9,77.2-21.4c19.1-10.6,38.9-21.6,77.9-21.6c38.9,0,58.7,11,77.9,21.6
					c19,10.5,38.6,21.4,77.2,21.4c38.6,0,58.2-10.9,77.2-21.4c19.1-10.6,38.9-21.6,77.9-21.6s58.7,11,77.9,21.6
					c19,10.5,38.6,21.4,77.2,21.4V80.7z"/>
			</g>
		</g>
		<g>
			<g>
				<path class="st1" d="M1800,114.1c-38.9,0-58.7-11-77.9-21.6C1703.2,82,1683.6,71,1645,71s-58.2,10.9-77.2,21.4
					c-19.1,10.6-38.9,21.6-77.9,21.6c-38.9,0-58.7-11-77.9-21.6C1393.2,82,1373.5,71,1335,71s-58.2,10.9-77.2,21.4
					c-19.1,10.6-38.9,21.6-77.9,21.6c-38.9,0-58.7-11-77.9-21.6C1083.1,82,1063.5,71,1025,71v-1.4c38.9,0,58.7,11,77.8,21.6
					c19,10.5,38.6,21.4,77.2,21.4s58.2-10.9,77.2-21.4c19.1-10.6,38.9-21.6,77.9-21.6c38.9,0,58.7,11,77.9,21.6
					c19,10.5,38.6,21.4,77.2,21.4c38.6,0,58.2-10.9,77.2-21.4c19.1-10.6,38.9-21.6,77.9-21.6s58.7,11,77.9,21.6
					c19,10.5,38.6,21.4,77.2,21.4V114.1z"/>
			</g>
		</g>
		<g>
			<g>
				<path class="st1" d="M1800,147.6c-38.9,0-58.7-11-77.9-21.6c-19-10.5-38.6-21.4-77.2-21.4s-58.2,10.9-77.2,21.4
					c-19.1,10.6-38.9,21.6-77.9,21.6c-38.9,0-58.7-11-77.9-21.6c-19-10.5-38.6-21.4-77.2-21.4s-58.2,10.9-77.2,21.4
					c-19.1,10.6-38.9,21.6-77.9,21.6c-38.9,0-58.7-11-77.9-21.6c-19-10.5-38.6-21.4-77.2-21.4v-1.4c38.9,0,58.7,11,77.8,21.6
					c19,10.5,38.6,21.4,77.2,21.4s58.2-10.9,77.2-21.4c19.1-10.6,38.9-21.6,77.9-21.6c38.9,0,58.7,11,77.9,21.6
					c19,10.5,38.6,21.4,77.2,21.4c38.6,0,58.2-10.9,77.2-21.4c19.1-10.6,38.9-21.6,77.9-21.6s58.7,11,77.9,21.6
					c19,10.5,38.6,21.4,77.2,21.4V147.6z"/>
			</g>
		</g>
		<g>
			<g>
				<path class="st1" d="M1800,181c-38.9,0-58.7-11-77.9-21.6c-19-10.5-38.6-21.4-77.2-21.4s-58.2,10.9-77.2,21.4
					c-19.1,10.6-38.9,21.6-77.9,21.6c-38.9,0-58.7-11-77.9-21.6c-19-10.5-38.6-21.4-77.2-21.4s-58.2,10.9-77.2,21.4
					c-19.1,10.6-38.9,21.6-77.9,21.6c-38.9,0-58.7-11-77.9-21.6c-19-10.5-38.6-21.4-77.2-21.4v-1.4c38.9,0,58.7,11,77.8,21.6
					c19,10.5,38.6,21.4,77.2,21.4s58.2-10.9,77.2-21.4c19.1-10.6,38.9-21.6,77.9-21.6c38.9,0,58.7,11,77.9,21.6
					c19,10.5,38.6,21.4,77.2,21.4c38.6,0,58.2-10.9,77.2-21.4c19.1-10.6,38.9-21.6,77.9-21.6s58.7,11,77.9,21.6
					c19,10.5,38.6,21.4,77.2,21.4V181z"/>
			</g>
		</g>
	</g>
	<g>
		<path class="st1" d="M896.9,203.3C896.9,203.3,896.9,203.3,896.9,203.3c-34.4,0-66.8-13.4-91.1-37.7c-21.7-21.7-35-50.5-37.4-81.1
			c-2.4-30.2,6-60.4,23.5-84.9l1.2,0.8c-17.3,24.3-25.6,54.1-23.3,84c2.4,30.2,15.5,58.7,36.9,80.2c24.1,24.1,56.1,37.3,90.1,37.3
			s66-13.3,90.1-37.3c21.5-21.5,34.6-49.9,36.9-80.2c2.3-29.9-5.9-59.7-23.3-84l1.2-0.8c17.5,24.5,25.9,54.7,23.5,84.9
			c-2.4,30.6-15.6,59.4-37.4,81.1C963.7,189.9,931.3,203.3,896.9,203.3z"/>
	</g>
	<g>
		<path class="st1" d="M896.9,136.5c-16.6,0-32.2-6.5-43.9-18.2S834.8,91,834.8,74.4c0-16.6,6.5-32.2,18.2-43.9s27.3-18.2,43.9-18.2
			s32.2,6.5,43.9,18.2c24.2,24.2,24.2,63.6,0,87.8C929.1,130.1,913.5,136.5,896.9,136.5z M896.9,13.8c-16.2,0-31.4,6.3-42.9,17.8
			c-11.5,11.5-17.8,26.7-17.8,42.9c0,16.2,6.3,31.4,17.8,42.9c11.5,11.5,26.7,17.8,42.9,17.8s31.4-6.3,42.9-17.8
			c23.7-23.7,23.7-62.1,0-85.8l0,0C928.3,20.1,913.1,13.8,896.9,13.8z"/>
	</g>
	<g>
		<rect x="895.9" class="st1" width="1.4" height="202.3"/>
	</g>
	<g>
		<rect x="512" y="73.3" class="st1" width="256.3" height="1.4"/>
	</g>
	<g>
		<rect x="512" y="330.4" class="st1" width="256.3" height="1.4"/>
	</g>
	<g>
		<rect x="639.5" y="0.7" class="st1" width="1.4" height="202.2"/>
	</g>
	<g>
		<rect x="1024.2" class="st1" width="1.4" height="202.3"/>
	</g>
	<g>
		<path class="st1" d="M383.9,460C312.8,460,255,402.2,255,331.1s57.8-128.9,128.9-128.9S512.8,260,512.8,331.1S454.9,460,383.9,460
			z M383.9,203.7c-70.3,0-127.4,57.2-127.4,127.4c0,70.3,57.2,127.4,127.4,127.4s127.4-57.2,127.4-127.4
			C511.3,260.8,454.1,203.7,383.9,203.7z"/>
	</g>
	<g>
		<path class="st1" d="M383.9,393.2c-34.2,0-62.1-27.9-62.1-62.1s27.9-62.1,62.1-62.1s62.1,27.9,62.1,62.1S418.1,393.2,383.9,393.2z
			 M383.9,270.4c-33.5,0-60.7,27.2-60.7,60.7c0,33.5,27.2,60.7,60.7,60.7s60.7-27.2,60.7-60.7C444.5,297.7,417.3,270.4,383.9,270.4z
			"/>
	</g>
	<g>
		<rect x="255.7" y="330.4" class="st1" width="256.3" height="1.4"/>
	</g>
	<g>
		<g>
			<rect x="255.5" y="153.2" class="st1" width="256" height="1.4"/>
		</g>
		<g>
			<rect x="255.5" y="101.2" class="st1" width="256" height="1.4"/>
		</g>
		<g>
			<rect x="255.5" y="49.3" class="st1" width="256" height="1.4"/>
		</g>
	</g>
</g>
</svg>
