<svg id="Layer_1" data-name="Layer 1" xmlns="http://www.w3.org/2000/svg" viewBox="0 0 118.86 100"><defs><style>.cls-1{fill:#31d2d8;}.cls-2{fill:#002b47;}.cls-3{fill:#fff;}</style></defs><title>icon_tips</title><ellipse class="cls-1" cx="51.54" cy="27.58" rx="23.95" ry="25.7"/><path class="cls-1" d="M50.55,60.44a29.15,29.15,0,0,0,15.77-3.92c5.55.46,10.77,1.12,15.11,1.9,16.69,3,21.38,25.82,21.38,34.21H0C0,84.24,4.7,61.4,21.38,58.42,25.75,57.64,31,57,36.6,56.51a29.21,29.21,0,0,0,13.95,3.93"/><path class="cls-2" d="M107.07,68.76a23.74,23.74,0,1,0-38.48,0L56.8,88,70,88.46,76.37,100,87.83,81.29,99.29,100l6.39-11.54L118.86,88Z"/><polygon class="cls-3" points="87.83 41.86 92.06 50.42 101.51 51.8 94.67 58.46 96.28 67.88 87.83 63.43 79.38 67.88 80.99 58.46 74.16 51.8 83.61 50.42 87.83 41.86"/></svg>