<svg id="Layer_1" data-name="Layer 1" xmlns="http://www.w3.org/2000/svg" viewBox="0 0 120 100"><defs><style>.cls-1{fill:#31d2d8;}.cls-2{fill:#002b47;}.cls-3{fill:#fff;}</style></defs><title>icon_blog</title><path class="cls-1" d="M0,40H100a0,0,0,0,1,0,0v60a0,0,0,0,1,0,0H12.87A12.87,12.87,0,0,1,0,87.13V40A0,0,0,0,1,0,40Z"/><path class="cls-2" d="M21.43,98.56V5.16h97.14V88.45a10.13,10.13,0,0,1-10.11,10.11Z"/><path class="cls-2" d="M117.14,6.59V88.45a8.7,8.7,0,0,1-8.68,8.68H22.86V6.59h94.28M120,3.73H20V100h88.46A11.54,11.54,0,0,0,120,88.45V3.73Z"/><rect class="cls-3" x="35.84" y="18.59" width="68.32" height="33.27"/><rect class="cls-3" x="35.84" y="64.97" width="60.21" height="3"/><rect class="cls-3" x="35.84" y="72.97" width="68.32" height="3"/><rect class="cls-3" x="35.84" y="80.97" width="36.13" height="3"/></svg>