<svg id="Layer_1" data-name="Layer 1" xmlns="http://www.w3.org/2000/svg" viewBox="0 0 120 100"><defs><style>.cls-1{fill:#002b47;}.cls-2{fill:#31d2d8;}.cls-3{fill:#fff;}</style></defs><title>icon_kb</title><rect class="cls-1" x="1.43" y="33.3" width="117.13" height="65.27"/><path class="cls-1" d="M117.14,34.73V97.14H2.86V34.73H117.14M120,31.87H0V100H120V31.87Z"/><polygon class="cls-2" points="107.04 86.5 60 100 12.96 86.5 12.96 18.34 60 31.84 107.04 18.34 107.04 86.5"/><rect class="cls-1" x="58" y="1.74" width="4" height="18.6"/><rect class="cls-1" x="68.58" y="14.92" width="13.68" height="4" transform="translate(10.13 58.29) rotate(-45)"/><rect class="cls-1" x="42.58" y="10.08" width="4" height="13.68" transform="translate(1.09 36.48) rotate(-45)"/><rect class="cls-3" x="21.52" y="48.59" width="29.91" height="4"/><rect class="cls-3" x="21.52" y="58.61" width="29.91" height="4"/><rect class="cls-3" x="21.52" y="68.64" width="14.91" height="4"/><rect class="cls-3" x="69.04" y="48.59" width="29.91" height="4"/><rect class="cls-3" x="69.04" y="58.61" width="29.91" height="4"/><rect class="cls-3" x="69.04" y="68.64" width="14.91" height="4"/></svg>