<svg id="Layer_1" data-name="Layer 1" xmlns="http://www.w3.org/2000/svg" viewBox="0 0 120 100"><defs><style>.cls-1{fill:#002b47;}.cls-2{fill:#31d2d8;}.cls-3{fill:#fff;}</style></defs><title>icon_marketplace</title><path class="cls-1" d="M1.43,98.57V7.74A2.57,2.57,0,0,1,4,5.17H116a2.57,2.57,0,0,1,2.57,2.57V98.57Z"/><path class="cls-1" d="M116,6.6a1.14,1.14,0,0,1,1.14,1.14v89.4H2.86V7.74A1.14,1.14,0,0,1,4,6.6H116m0-2.86H4a4,4,0,0,0-4,4V21.87H0V100H120V7.74a4,4,0,0,0-4-4Z"/><path class="cls-2" d="M120,21.87V7.74a4,4,0,0,0-4-4H4a4,4,0,0,0-4,4V21.87"/><circle class="cls-3" cx="11.06" cy="11.4" r="2.36"/><circle class="cls-3" cx="19.06" cy="11.4" r="2.36"/><circle class="cls-3" cx="27.06" cy="11.4" r="2.36"/><path class="cls-2" d="M78.78,54.34a25,25,0,0,0-45.58,6.5l-.66,0a12.43,12.43,0,1,0,0,24.86h55A12.4,12.4,0,0,0,100,73.24C100,62.46,90.51,54.4,78.78,54.34Z"/><path class="cls-3" d="M60.05,54.87,43,71.27,38.91,67,49,57.72H20.1V52H49L38.91,42.71,43,38.47Z"/></svg>