<svg id="Layer_1" data-name="Layer 1" xmlns="http://www.w3.org/2000/svg" viewBox="0 0 127.48 100"><defs><style>.cls-1{fill:#002b47;}.cls-2{fill:#31d2d8;}.cls-3{fill:#fff;}</style></defs><title>icon_events</title><path class="cls-1" d="M1.43,89.18V6.48A2.57,2.57,0,0,1,4,3.92H116a2.57,2.57,0,0,1,2.57,2.56v82.7Z"/><path class="cls-1" d="M116,5.35a1.14,1.14,0,0,1,1.14,1.13V87.75H2.86V6.48A1.14,1.14,0,0,1,4,5.35H116m0-2.87H4a4,4,0,0,0-4,4V20.62H0v70H120V6.48a4,4,0,0,0-4-4Z"/><path class="cls-2" d="M120,14V6.48a4,4,0,0,0-4-4H4a4,4,0,0,0-4,4V14"/><path class="cls-3" d="M31.78,59.12l5.29-.82c.89,8,5.16,12.09,12.38,12.09,6.32,0,10.45-3.64,10.45-9,0-6.26-3.79-9.21-11.48-9.21H45V47.43h3.44c5.77,0,10.24-3.3,10.24-7.49,0-4.75-3.5-7.63-9.28-7.63-6.05,0-10.25,3.23-11.07,8.66L33,40.22c1.09-7.91,7.49-12.93,16.36-12.93S64,32.17,64,39.53a10.75,10.75,0,0,1-6.6,9.69v.14c4.88,1.79,7.84,6.26,7.84,12,0,8.39-6.33,14-15.81,14C39.27,75.42,32.88,69.5,31.78,59.12Z"/><path class="cls-3" d="M80.88,34.44,70.09,41.18V35.4l11.42-7.15h4.74v46.2H80.88Z"/><path class="cls-2" d="M101,98.45a24.94,24.94,0,1,1,24.94-24.93A25,25,0,0,1,101,98.45Z"/><path class="cls-2" d="M101,50.12a23.4,23.4,0,1,1-23.39,23.4A23.42,23.42,0,0,1,101,50.12M101,47a26.49,26.49,0,1,0,26.48,26.49A26.48,26.48,0,0,0,101,47Z"/><polygon class="cls-3" points="98.17 84.7 89.36 74.83 93.27 71.33 98.24 76.89 111.15 62.92 115.01 66.47 98.17 84.7"/></svg>