<svg id="Layer_1" data-name="Layer 1" xmlns="http://www.w3.org/2000/svg" viewBox="0 0 120 100"><defs><style>.cls-1{fill:#002b47;}.cls-2{fill:#fff;}.cls-3{fill:#31d2d8;}</style></defs><title>icon_webinar</title><path class="cls-1" d="M1.43,98.57V7.74A2.57,2.57,0,0,1,4,5.17H116a2.57,2.57,0,0,1,2.57,2.57V98.57Z"/><path class="cls-1" d="M116,6.6a1.14,1.14,0,0,1,1.14,1.14v89.4H2.86V7.74A1.14,1.14,0,0,1,4,6.6H116m0-2.86H4a4,4,0,0,0-4,4V21.87H0V100H120V7.74a4,4,0,0,0-4-4Z"/><circle class="cls-2" cx="36.62" cy="59.03" r="21.45"/><polygon class="cls-1" points="31.17 50.49 46.55 59.03 31.17 67.58 31.17 50.49"/><path class="cls-1" d="M32.6,52.92,43.6,59l-11,6.11V52.92m-2.86-4.86V70L49.5,59l-19.76-11Z"/><path class="cls-3" d="M120,21.87V7.74a4,4,0,0,0-4-4H4a4,4,0,0,0-4,4V21.87"/><circle class="cls-2" cx="11.06" cy="11.4" r="2.36"/><circle class="cls-2" cx="19.06" cy="11.4" r="2.36"/><circle class="cls-2" cx="27.06" cy="11.4" r="2.36"/><path class="cls-2" d="M100.92,93.31a.44.44,0,0,1-.4-.24l-4.11-7.56L91.58,90a.44.44,0,0,1-.32.13.47.47,0,0,1-.46-.42l-2-22.21a.46.46,0,0,1,.24-.46.54.54,0,0,1,.22,0,.46.46,0,0,1,.29.1L107,81a.48.48,0,0,1,.17.46.45.45,0,0,1-.35.35l-6.35,1.55,4.1,7.56a.47.47,0,0,1,0,.35.49.49,0,0,1-.23.28l-3.19,1.73A.4.4,0,0,1,100.92,93.31Z"/><path class="cls-1" d="M89.21,67.48l17.45,13.86L99.73,83l4.38,8.09-3.19,1.73-4.39-8.09L91.26,89.7,89.21,67.48m0-.93a.86.86,0,0,0-.44.12.93.93,0,0,0-.49.9l2.06,22.21a.91.91,0,0,0,.59.78,1,1,0,0,0,.33.06.92.92,0,0,0,.64-.25l4.39-4.11,3.82,7a.94.94,0,0,0,.81.49,1,1,0,0,0,.45-.11l3.19-1.73a1,1,0,0,0,.44-.56.9.9,0,0,0-.07-.7l-3.81-7,5.76-1.4a.92.92,0,0,0,.36-1.62L89.79,66.76a.92.92,0,0,0-.58-.21Z"/><rect class="cls-3" x="67" y="43.55" width="25.08" height="3"/><rect class="cls-3" x="67" y="51.55" width="36.08" height="3"/><rect class="cls-3" x="67" y="59.55" width="19.08" height="3"/></svg>