<svg width="117" height="73" viewBox="0 0 117 73" fill="none" xmlns="http://www.w3.org/2000/svg">
<path fill-rule="evenodd" clip-rule="evenodd" d="M46 6.59999C46 6.69999 37.1 22.7 33.2 29.7L31.9 32.1H58C72.4 32.1 84.1 32.1 84.2 32C84.2 31.9 85.1 30.4 86.1 28.6L87.9 25.3H72.1C62.3 25.3 56.3 25.3 56.3 25.2C56.3 25.1 56.4 24.9 56.5 24.7C56.7 24.3 61.3 16 64.9 9.59999C65.8 7.99999 66.5 6.59999 66.5 6.59999C66.5 6.49999 46 6.59999 46 6.59999ZM3 58C3 58.1 2.6 59.6 2.3 61.3C1.9 63 1.3 66.2 0.8 68.2C0.4 70.3 0 72 0 72.1C0 72.2 2.4 72.2 7.4 72.2H14.8L15.1 70.6C15.3 69.7 15.5 68.9 15.5 68.7L15.6 68.4H11.2C8.8 68.4 6.7 68.4 6.7 68.3C6.7 68.2 7.1 66 7.7 63.2C8.3 60.4 8.8 58.1 8.8 58C8.8 57.8 8.6 57.8 6 57.8C3.8 57.8 3.1 57.9 3 58ZM18.7 58.8C18.6 59.3 18 62.2 17.3 65.2C16.6 68.2 16 71 16 71.5L15.8 72.3H18.7H21.6L22.2 69.5C22.5 68 23.2 64.8 23.7 62.4C24.2 60.1 24.6 58.1 24.6 58C24.6 57.9 23.3 57.9 21.7 57.9H18.8L18.7 58.8ZM25.9 57.9C25.8 58 22.9 71.8 22.9 72C22.9 72.2 23.6 72.2 29.9 72.2C37.4 72.2 37.7 72.2 39.1 71.6C41 70.8 42.2 68.7 42.1 66.6C42 65.5 41.7 64.9 40.9 64.5L40.4 64.2L40.9 64C41.5 63.7 42.1 63 42.5 62.3C42.7 61.9 42.8 61.5 42.8 60.6C42.8 59.5 42.8 59.4 42.5 59C42.3 58.8 41.9 58.4 41.6 58.3L41 58H33.6C29.3 57.8 25.9 57.9 25.9 57.9ZM44.8 58.1C44.8 58.3 44.4 59.8 44.1 61.5C42.8 67.5 42 71.5 41.9 71.8L41.8 72.1H49.6H57.4L57.7 70.4C57.9 69.5 58 68.7 58 68.7C58 68.7 55.8 68.6 53.2 68.7C50.6 68.7 48.4 68.7 48.4 68.6C48.4 68.5 48.4 68.1 48.5 67.6L48.7 66.7L53.3 66.6L57.9 66.5L58.2 64.9C58.4 64 58.5 63.2 58.5 63.2C58.5 63.1 57.5 63 54 63.1C51.6 63.1 49.6 63.1 49.5 63.1C49.4 63 49.7 61.7 49.9 61.4C50 61.2 50.4 61.2 54.9 61.2H59.7L60 59.6C60.2 58.7 60.3 58 60.3 57.9C60.3 57.8 58.7 57.7 52.5 57.7H44.7L44.8 58.1ZM61.5 57.9C61.5 57.9 61.1 60 60.5 62.6C60 65.1 59.3 68.3 59 69.6C58.7 70.9 58.5 72 58.4 72.1C58.3 72.3 58.5 72.3 61.2 72.3C62.8 72.3 64.1 72.3 64.1 72.3C64.1 72.3 64.3 71.3 64.6 70.1L65.1 68H67.2C69.9 68 70.1 68 70.3 68.6C70.5 69 70.5 69.2 70.3 70.4C70.2 71.1 70.1 71.9 70.1 72.1V72.4H73.2C76.2 72.4 76.3 72.4 76.2 72.2C75.9 71.7 75.9 71 76.2 69.4C76.5 67.1 76.5 66.6 76.2 66.1C76 65.9 75.8 65.6 75.6 65.5C75.3 65.4 75.3 65.3 75.9 65C76.7 64.6 77.4 63.9 77.8 63C78.1 62.5 78.1 62.1 78.2 61.2C78.2 60.2 78.2 60.1 77.9 59.5C77.7 59.1 77.4 58.7 77.1 58.6C76.2 58 75.8 58 68.2 58C64.7 57.8 61.5 57.8 61.5 57.9ZM80.2 58.1C80.1 58.7 79.5 61.3 79.5 61.3C79.5 61.3 80.7 61.4 82.2 61.4C83.9 61.4 84.9 61.4 84.9 61.5C84.9 61.6 84.4 63.9 83.8 66.8C83.2 69.6 82.7 72 82.7 72.1C82.7 72.2 83.2 72.3 85.6 72.3C88.1 72.3 88.5 72.3 88.5 72.1C88.5 71.8 90.7 61.7 90.8 61.5C90.8 61.4 92.1 61.4 93.5 61.4C95 61.4 96.1 61.4 96.1 61.3C96.1 61.3 96.3 60.5 96.5 59.6C96.7 58.7 96.9 57.9 96.9 57.9C96.9 57.9 93.2 57.9 88.6 57.9H80.3L80.2 58.1ZM97.7 58C97.7 58.1 98.7 60.5 99.8 63.2L101.8 68.2L101.4 69.9C101.2 70.9 101 71.8 101 71.9L100.9 72.2H103.8C105.4 72.2 106.7 72.2 106.7 72.2C106.7 72.2 106.9 71.3 107.1 70.2L107.5 68.2L109.8 65.4C111.1 63.9 113 61.6 114.1 60.2L116.1 57.8H112.9C111.2 57.8 109.7 57.8 109.6 57.8C109.5 57.8 108.6 59.1 107.6 60.5C106.6 62 105.7 63.2 105.6 63.2C105.6 63.2 105.2 62.1 104.9 60.9C104.5 59.6 104.2 58.4 104.1 58.2L104 57.8H100.7C97.9 57.8 97.7 57.8 97.7 58ZM36.1 61.5C36.3 61.6 36.4 61.8 36.4 62.1C36.4 62.6 36.1 63 35.6 63.2C35.1 63.3 30.6 63.4 30.5 63.3C30.4 63.2 30.7 62 30.8 61.6C30.9 61.2 35.7 61.2 36.1 61.5ZM71.2 61.5C71.8 61.6 72 61.9 72 62.5C72 63.2 71.7 63.7 71.1 64C70.6 64.2 70.3 64.2 68.3 64.2C66.2 64.2 66 64.2 66 64C66 63.9 66.2 63.3 66.3 62.8C66.4 62.3 66.5 61.7 66.6 61.6C66.7 61.4 66.9 61.4 68.7 61.4C69.8 61.4 71 61.4 71.2 61.5ZM35.5 66.6C35.9 66.8 36 67.1 35.9 67.6C35.7 68.6 34.9 68.8 31.6 68.8C28.9 68.8 29.2 68.9 29.5 67.4L29.7 66.5H32.5C34.2 66.5 35.2 66.5 35.5 66.6Z" fill="#252525"/>
<path fill-rule="evenodd" clip-rule="evenodd" d="M71.7001 0.1C71.7001 0.3 71.9001 0.3 73.5001 0.5C76.6001 0.8 80.8001 1.6 84.3001 2.4C93.0001 4.5 99.7001 8 102.9 12.1C105.1 14.9 105.8 18.6 104.9 21.7C103.2 27.1 96.9001 32.1 87.2001 35.7C79.1001 38.7 69.7001 40.2 59.5001 40.2C48.9001 40.2 39.7001 38.5 31.7001 35C30.6001 34.5 30.1001 34.5 30.8001 34.9C32.9001 36.2 37.3001 38 41.2001 39.1C56.8001 43.8 80.6001 43.2 97.1001 37.8C106.8 34.6 113.3 30.3 115.8 25.5C116.8 23.6 117.1 21.5 116.8 19.5C116.2 15.6 113 11.9 107.6 8.6C100.2 4.2 88.4001 1 76.3001 0.2C74.8001 0.1 73.1001 0 72.6001 0C72.0001 0 71.7001 0 71.7001 0.1Z" fill="#F2273F"/>
<path fill-rule="evenodd" clip-rule="evenodd" d="M48.3999 0.799966C30.5999 1.29997 15.8999 5.09997 6.89992 11.5C5.59992 12.4 3.49992 14.5 2.59992 15.6C-1.10008 20.5 -0.500084 25.7 4.29992 30.4C9.29992 35.4 18.4999 39.2 30.3999 41.5C33.7999 42.1 39.5999 42.8 42.8999 42.9C43.9999 42.9 44.8999 43 45.0999 43C45.2999 43 45.3999 43 45.2999 42.9C45.2999 42.8 45.0999 42.7 44.7999 42.7C42.5999 42.6 36.9999 41.7 33.9999 41C19.9999 37.8 12.2999 32.2 11.8999 24.7C11.5999 19.3 15.8999 14.1 24.3999 9.79997C35.5999 3.99997 52.6999 1.59997 67.9999 3.49997C74.1999 4.29997 80.6999 5.99997 85.3999 8.09997C86.3999 8.59997 86.5999 8.59997 86.5999 8.39997C86.5999 8.19997 82.4999 6.29997 80.8999 5.59997C74.3999 3.09997 66.0999 1.39997 57.8999 0.899966C55.3999 0.799966 50.2999 0.699966 48.3999 0.799966Z" fill="#F2273F"/>
</svg>
