<?xml version="1.0" encoding="utf-8"?>
<!-- Generator: Adobe Illustrator 23.0.1, SVG Export Plug-In . SVG Version: 6.00 Build 0)  -->
<svg version="1.1" xmlns="http://www.w3.org/2000/svg" xmlns:xlink="http://www.w3.org/1999/xlink" x="0px" y="0px"
	 viewBox="0 0 160 160" style="enable-background:new 0 0 160 160;" xml:space="preserve">
<style type="text/css">
	.st0{fill:none;stroke:#00263E;stroke-width:2;stroke-linecap:round;stroke-miterlimit:10;}
	.st1{fill:#FFFFFF;}
	.st2{fill:#F3FBFC;}
	.st3{fill:#00263E;}
	.st4{fill:#2DCCD3;}
	.st5{fill:none;stroke:#2DCCD3;stroke-width:11.6204;stroke-miterlimit:10;}
	.st6{fill:#00263E;stroke:#00263E;stroke-width:0.9848;stroke-miterlimit:10;}
	.st7{fill:none;stroke:#2DCCD3;stroke-width:7;stroke-miterlimit:10;}
	.st8{fill:#C2D6ED;}
	.st9{fill:none;stroke:#FFFFFF;stroke-width:5.2456;stroke-miterlimit:10;}
	.st10{fill:none;stroke:#2DCCD3;stroke-width:3;stroke-miterlimit:10;}
	.st11{fill:#00263E;stroke:#00263E;stroke-width:1.1017;stroke-miterlimit:10;}
	.st12{fill:none;stroke:#2DCCD3;stroke-width:4;stroke-miterlimit:10;}
	.st13{fill:none;stroke:#FFFFFF;stroke-width:2;stroke-miterlimit:10;}
	.st14{fill:none;stroke:#00263E;stroke-width:2.5386;stroke-miterlimit:10;}
	.st15{fill:none;stroke:#2DCCD3;stroke-width:6;stroke-linecap:round;stroke-miterlimit:10;}
	.st16{fill:none;stroke:#FFFFFF;stroke-width:5.4674;stroke-linecap:round;stroke-miterlimit:10;}
	.st17{fill:none;stroke:#FFFFFF;stroke-miterlimit:10;}
	.st18{fill:none;stroke:#C2D6ED;stroke-width:4;stroke-linecap:round;stroke-miterlimit:10;}
	.st19{fill:#C2D6ED;stroke:#00263E;stroke-width:2;stroke-linecap:round;stroke-linejoin:round;stroke-miterlimit:10;}
	.st20{fill:none;stroke:#FFFFFF;stroke-width:3;stroke-linecap:round;stroke-linejoin:round;stroke-miterlimit:10;}
	.st21{fill:none;stroke:#FFFFFF;stroke-linecap:round;stroke-linejoin:round;stroke-miterlimit:10;}
	.st22{clip-path:url(#SVGID_3_);}
	.st23{clip-path:url(#SVGID_6_);fill:none;stroke:#00263E;stroke-width:4.4711;stroke-linejoin:round;stroke-miterlimit:10;}
	.st24{fill:none;stroke:#FFFFFF;stroke-width:3;stroke-linecap:square;stroke-miterlimit:10;}
	.st25{fill:#00263E;stroke:#FFFFFF;stroke-width:2;stroke-miterlimit:10;}
	.st26{fill:#00263E;stroke:#00263E;stroke-width:4.916;stroke-linecap:square;stroke-miterlimit:10;}
	.st27{fill:#FFFFFF;stroke:#FFFFFF;stroke-width:2.1818;stroke-miterlimit:10;}
	.st28{fill:none;stroke:#2DCCD3;stroke-width:2;stroke-linecap:round;stroke-miterlimit:10;}
	.st29{fill:none;stroke:#2DCCD3;stroke-width:2;stroke-linecap:round;stroke-linejoin:round;stroke-miterlimit:10;}
	.st30{fill:none;stroke:#2DCCD3;stroke-width:2;stroke-linejoin:round;stroke-miterlimit:10;}
	
		.st31{fill:none;stroke:#2DCCD3;stroke-width:2;stroke-linecap:round;stroke-linejoin:round;stroke-miterlimit:10;stroke-dasharray:2,4;}
	.st32{fill:#00263E;stroke:#00263E;stroke-width:2;stroke-linecap:round;stroke-miterlimit:10;}
	.st33{fill:none;stroke:#2DCCD3;stroke-width:2;stroke-linecap:round;stroke-linejoin:round;}
	.st34{fill:none;stroke:#2DCCD3;stroke-width:2;stroke-linecap:round;stroke-linejoin:round;stroke-dasharray:6,6;}
	.st35{fill:none;stroke:#2DCCD3;stroke-width:2.8063;stroke-miterlimit:10;}
	.st36{fill:none;stroke:#2DCCD3;stroke-width:12.5799;stroke-miterlimit:10;}
	.st37{fill:url(#SVGID_7_);stroke:#2DCCD3;stroke-width:12.5799;stroke-miterlimit:10;}
	.st38{fill:none;stroke:#2DCCD3;stroke-width:12.1606;stroke-miterlimit:10;}
	.st39{fill:#00263E;stroke:#00263E;stroke-width:1.0305;stroke-miterlimit:10;}
	.st40{fill:none;stroke:#00263E;stroke-width:4;stroke-miterlimit:10;}
	.st41{fill:#FFFFFF;stroke:#FFFFFF;stroke-width:0.9825;stroke-miterlimit:10;}
	.st42{fill:none;stroke:#00263E;stroke-width:3;stroke-miterlimit:10;}
	.st43{fill:#FFFFFF;stroke:#00263E;stroke-width:3;stroke-miterlimit:10;}
	.st44{fill:none;stroke:#2DCCD3;stroke-width:5;stroke-miterlimit:10;}
	.st45{fill:#FFFFFF;stroke:#00263E;stroke-width:10.5186;stroke-miterlimit:10;}
	.st46{fill:none;stroke:#00263E;stroke-width:6.0814;stroke-miterlimit:10;}
	.st47{fill:none;stroke:#00263E;stroke-width:5.469;stroke-miterlimit:10;}
	.st48{fill:none;stroke:#C2D6ED;stroke-width:2.9877;stroke-miterlimit:10;}
	.st49{fill:url(#SVGID_8_);}
	.st50{fill:none;stroke:#00263E;stroke-width:5;stroke-miterlimit:10;}
	.st51{fill:none;stroke:#2DCCD3;stroke-width:2.8993;stroke-miterlimit:10;}
	.st52{fill:none;stroke:#00263E;stroke-width:9;stroke-miterlimit:10;}
	.st53{fill:none;stroke:#00263E;stroke-width:6.6189;stroke-miterlimit:10;}
	.st54{fill:none;stroke:#00263E;stroke-width:5.6733;stroke-miterlimit:10;}
	.st55{fill:none;stroke:#2DCCD3;stroke-width:13.1833;stroke-miterlimit:10;}
	.st56{fill:url(#SVGID_9_);stroke:#2DCCD3;stroke-width:13.1833;stroke-miterlimit:10;}
	.st57{fill:none;stroke:#FFFFFF;stroke-width:3.0057;stroke-miterlimit:10;}
	.st58{fill:#FFFFFF;stroke:#FFFFFF;stroke-width:0.96;stroke-miterlimit:10;}
	.st59{fill:#FFFFFF;stroke:#FFFFFF;stroke-width:3;stroke-miterlimit:10;}
	.st60{fill:none;stroke:#FFFFFF;stroke-width:3;stroke-miterlimit:10;}
	.st61{fill:#FFFFFF;stroke:#2DCCD3;stroke-width:3;stroke-miterlimit:10;}
	.st62{fill:#FFFFFF;stroke:#00263E;stroke-width:2.2144;stroke-linecap:round;stroke-linejoin:round;stroke-miterlimit:10;}
	.st63{fill:#C2D6ED;stroke:#00263E;stroke-width:2.2144;stroke-linecap:round;stroke-linejoin:round;stroke-miterlimit:10;}
	.st64{fill:#2DCCD3;stroke:#FFFFFF;stroke-width:2;stroke-linecap:round;stroke-linejoin:round;stroke-miterlimit:10;}
	.st65{fill:#00263E;stroke:#00263E;stroke-width:0.9713;stroke-miterlimit:10;}
</style>
<g id="Grid">
</g>
<g id="Testing__x2F__Notes">
</g>
<g id="Old_Versions_x2F_Scrapped">
</g>
<g id="Final_Icons">
	<g>
		<path class="st3" d="M1.4,158.5V67.6c0-1.4,1.2-2.6,2.6-2.6h112c1.4,0,2.6,1.2,2.6,2.6v90.8L1.4,158.5z"/>
		<path class="st3" d="M116,66.5c0.6,0,1.1,0.5,1.1,1.1v9.5v3.6V157L2.9,157V81.8v-1.1v-3.6v-9.5c0-0.6,0.5-1.1,1.1-1.1H116
			 M116,63.6H4c-2.2,0-4,1.8-4,4v9.5v3.6c0,0.8,0,1.1,0,1.1s0,0,0,0v78.1l120,0V80.7v-3.6v-9.5C120,65.4,118.2,63.6,116,63.6
			L116,63.6z"/>
	</g>
	<path class="st4" d="M120,81.8v-4.7v-9.5c0-2.2-1.8-4-4-4H4c-2.2,0-4,1.8-4,4v9.5v3.6c0,0.8,0,1.1,0,1.1"/>
	<g>
		<circle class="st1" cx="11.1" cy="71.3" r="2.4"/>
	</g>
	<g>
		<circle class="st1" cx="19.1" cy="71.3" r="2.4"/>
	</g>
	<g>
		<circle class="st1" cx="27.1" cy="71.3" r="2.4"/>
	</g>
	<g>
		<path class="st1" d="M100.9,153.2c0,0-0.1,0-0.1,0c-0.1,0-0.2-0.1-0.3-0.2l-4.1-7.6l-4.8,4.5c-0.1,0.1-0.2,0.1-0.3,0.1
			c-0.1,0-0.1,0-0.2,0c-0.2-0.1-0.3-0.2-0.3-0.4l-2.1-22.2c0-0.2,0.1-0.4,0.2-0.5c0.1,0,0.1-0.1,0.2-0.1c0.1,0,0.2,0,0.3,0.1
			l17.5,13.9c0.1,0.1,0.2,0.3,0.2,0.5s-0.2,0.3-0.3,0.4l-6.4,1.5l4.1,7.6c0.1,0.1,0.1,0.2,0,0.4c0,0.1-0.1,0.2-0.2,0.3l-3.2,1.7
			C101.1,153.2,101,153.2,100.9,153.2z"/>
		<path class="st3" d="M89.2,127.4l17.5,13.9l-6.9,1.7l4.4,8.1l-3.2,1.7l-4.4-8.1l-5.3,4.9L89.2,127.4 M89.2,126.5
			c-0.2,0-0.3,0-0.4,0.1c-0.3,0.2-0.5,0.5-0.5,0.9l2.1,22.2c0,0.4,0.3,0.7,0.6,0.8c0.1,0,0.2,0.1,0.3,0.1c0.2,0,0.5-0.1,0.6-0.3
			l4.4-4.1l3.8,7c0.2,0.3,0.5,0.5,0.8,0.5c0.1,0,0.3,0,0.4-0.1l3.2-1.7c0.2-0.1,0.4-0.3,0.4-0.6c0.1-0.2,0-0.5-0.1-0.7l-3.8-7
			l5.8-1.4c0.3-0.1,0.6-0.4,0.7-0.7s-0.1-0.7-0.3-0.9l-17.5-13.9C89.6,126.5,89.4,126.5,89.2,126.5L89.2,126.5z"/>
	</g>
	<g>
		<path class="st1" d="M47.2,120.8c0,0.1,0,0.3-0.1,0.4c0,0.2-0.1,0.4-0.2,0.6c0,0.1-0.1,0.3-0.1,0.4c-0.1,0.2-0.1,0.4-0.2,0.6
			c0,0.1-0.1,0.2-0.1,0.3c-0.1,0.3-0.2,0.5-0.4,0.7c0,0.1,0,0.1-0.1,0.2c-0.2,0.3-0.3,0.6-0.5,0.8c-0.1,0.1-0.1,0.2-0.2,0.3
			c-0.1,0.2-0.3,0.4-0.4,0.5c-0.1,0.1-0.2,0.2-0.3,0.3c-0.1,0.1-0.3,0.3-0.4,0.4c-0.1,0.1-0.2,0.2-0.3,0.3c-0.1,0.1-0.3,0.3-0.4,0.4
			c-0.1,0.1-0.2,0.2-0.3,0.3c-0.1,0.1-0.3,0.2-0.4,0.3c-0.1,0.1-0.2,0.2-0.4,0.2c-0.2,0.1-0.3,0.2-0.5,0.3c-0.1,0.1-0.3,0.1-0.4,0.2
			c-0.2,0.1-0.3,0.2-0.5,0.2c-0.1,0.1-0.3,0.1-0.4,0.2c-0.2,0.1-0.4,0.1-0.5,0.2c-0.1,0-0.3,0.1-0.4,0.1c-0.2,0.1-0.4,0.1-0.6,0.2
			c-0.1,0-0.3,0.1-0.4,0.1c-0.2,0-0.4,0.1-0.7,0.1c-0.1,0-0.2,0-0.3,0c-0.3,0-0.7,0.1-1,0.1c-5.9,0-10.7-4.8-10.7-10.7
			c0-0.4,0-0.7,0.1-1c0-0.1,0-0.2,0-0.3c0-0.2,0.1-0.5,0.1-0.7c0-0.1,0.1-0.3,0.1-0.4c0-0.2,0.1-0.4,0.2-0.6c0-0.1,0.1-0.3,0.1-0.4
			c0.1-0.2,0.1-0.4,0.2-0.5c0.1-0.1,0.1-0.3,0.2-0.4c0.1-0.2,0.2-0.3,0.2-0.5c0.1-0.1,0.1-0.3,0.2-0.4c0.1-0.2,0.2-0.3,0.3-0.5
			c0.1-0.1,0.2-0.2,0.2-0.4c0.1-0.1,0.2-0.3,0.3-0.4c0.1-0.1,0.2-0.2,0.3-0.3c0.1-0.1,0.2-0.3,0.4-0.4c0.1-0.1,0.2-0.2,0.3-0.3
			c0.1-0.1,0.3-0.3,0.4-0.4c0.1-0.1,0.2-0.2,0.3-0.3c0.2-0.1,0.3-0.3,0.5-0.4c0.1-0.1,0.2-0.1,0.3-0.2c0.3-0.2,0.6-0.4,0.8-0.5
			c0.1,0,0.1-0.1,0.2-0.1c0.2-0.1,0.5-0.2,0.7-0.4c0.1,0,0.2-0.1,0.3-0.1c0.2-0.1,0.4-0.2,0.6-0.2c0.1,0,0.3-0.1,0.4-0.1
			c0.2-0.1,0.4-0.1,0.6-0.2c0.1,0,0.3-0.1,0.4-0.1c0.1,0,0.3-0.1,0.4-0.1V97.5c-0.1,0-0.2,0-0.4,0c-0.3,0-0.7,0.1-1,0.1
			c-0.4,0-0.7,0.1-1.1,0.2c-0.3,0.1-0.6,0.1-1,0.2c-0.4,0.1-0.7,0.2-1.1,0.3c-0.3,0.1-0.6,0.2-0.9,0.3c-0.3,0.1-0.7,0.2-1,0.4
			c-0.3,0.1-0.6,0.2-0.9,0.4c-0.3,0.1-0.7,0.3-1,0.5c-0.3,0.1-0.6,0.3-0.8,0.5c-0.3,0.2-0.6,0.4-0.9,0.6c-0.3,0.2-0.5,0.3-0.8,0.5
			c-0.3,0.2-0.6,0.4-0.9,0.6c-0.2,0.2-0.5,0.4-0.7,0.6c-0.3,0.2-0.5,0.5-0.8,0.7c-0.2,0.2-0.5,0.4-0.7,0.7c-0.3,0.3-0.5,0.5-0.7,0.8
			c-0.2,0.2-0.4,0.5-0.6,0.7c-0.2,0.3-0.4,0.6-0.7,0.9c-0.2,0.2-0.4,0.5-0.5,0.7c-0.2,0.3-0.4,0.6-0.6,1c-0.2,0.3-0.3,0.5-0.5,0.8
			c-0.2,0.3-0.3,0.7-0.5,1c-0.1,0.3-0.3,0.5-0.4,0.8c-0.2,0.4-0.3,0.7-0.4,1.1c-0.1,0.3-0.2,0.5-0.3,0.8c-0.1,0.4-0.2,0.8-0.3,1.2
			c-0.1,0.3-0.1,0.5-0.2,0.8c-0.1,0.5-0.2,0.9-0.2,1.4c0,0.2-0.1,0.5-0.1,0.7c-0.1,0.7-0.1,1.4-0.1,2.2c0,11.9,9.7,21.5,21.5,21.5
			c0.7,0,1.4,0,2.2-0.1c0.2,0,0.5-0.1,0.7-0.1c0.5-0.1,0.9-0.1,1.4-0.2c0.3-0.1,0.5-0.1,0.8-0.2c0.4-0.1,0.8-0.2,1.2-0.3
			c0.3-0.1,0.6-0.2,0.8-0.3c0.4-0.1,0.8-0.3,1.1-0.4c0.3-0.1,0.5-0.2,0.8-0.4c0.3-0.2,0.7-0.3,1-0.5c0.3-0.1,0.5-0.3,0.8-0.5
			c0.3-0.2,0.6-0.4,1-0.6c0.3-0.2,0.5-0.4,0.8-0.5c0.3-0.2,0.6-0.4,0.9-0.7c0.2-0.2,0.5-0.4,0.7-0.6c0.3-0.2,0.5-0.5,0.8-0.7
			c0.2-0.2,0.4-0.4,0.7-0.7c0.2-0.3,0.5-0.5,0.7-0.8c0.2-0.2,0.4-0.5,0.6-0.7c0.2-0.3,0.4-0.6,0.6-0.9c0.2-0.3,0.4-0.5,0.5-0.8
			c0.2-0.3,0.4-0.6,0.6-0.9c0.2-0.3,0.3-0.6,0.5-0.8c0.2-0.3,0.3-0.6,0.5-1c0.1-0.3,0.3-0.6,0.4-0.9c0.1-0.3,0.3-0.7,0.4-1
			c0.1-0.3,0.2-0.6,0.3-0.9c0.1-0.4,0.2-0.7,0.3-1.1c0.1-0.3,0.1-0.6,0.2-1c0.1-0.4,0.1-0.7,0.2-1.1c0-0.3,0.1-0.7,0.1-1
			c0-0.1,0-0.2,0-0.4H47.2C47.2,120.5,47.2,120.6,47.2,120.8z"/>
		<g>
			<path class="st4" d="M48.4,116c-1.1-4.3-4.5-7.8-8.8-8.8v-8c8.7,1.3,15.6,8.2,16.9,16.9H48.4z"/>
			<path class="st4" d="M41.1,100.9c6.7,1.6,11.9,6.9,13.6,13.6h-5.1c-1.4-4-4.5-7.1-8.5-8.5V100.9 M38.1,97.5v10.9
				c4.7,0.7,8.4,4.4,9.1,9.1h10.9C57.4,106.7,48.8,98.2,38.1,97.5L38.1,97.5z"/>
		</g>
	</g>
	<line class="st10" x1="67" y1="105" x2="92.1" y2="105"/>
	<line class="st10" x1="67" y1="113" x2="103.1" y2="113"/>
	<line class="st10" x1="67" y1="121" x2="86.1" y2="121"/>
</g>
</svg>
