<svg id="Layer_1" data-name="Layer 1" xmlns="http://www.w3.org/2000/svg" width="291.15" height="287.11" viewBox="0 0 291.15 287.11"><defs><style>.cls-1{fill:#4ac3cd;}.cls-2{fill:#78d2da;}</style></defs><title>radial_pattern_teal</title><path class="cls-1" d="M.5,6.76V.42C74.61,6.19,139.05,33.81,193.39,84.36a310.51,310.51,0,0,1,98.1,203,31.73,31.73,0,0,1-6.16-.05c-7.19-75.19-36.92-139.84-90.69-192.83S75.72,12.86.5,6.76Z" transform="translate(-0.35 -0.42)"/><path class="cls-1" d="M.35,21V15A292.18,292.18,0,0,1,116,47.21q81.21,42.14,125.55,122.28a291.85,291.85,0,0,1,35.56,117.85h-6.22c-.16-1.18-.32-2.42-.5-3.65-.5-3.63-1.07-7.25-1.5-10.88-3.52-29.4-12.19-57.27-24.67-84a288.87,288.87,0,0,0-42.66-66,291.6,291.6,0,0,0-61.45-54.17A289.25,289.25,0,0,0,53.29,30,292.58,292.58,0,0,0,24,24c-4.2-.64-8.45-1-12.68-1.48-3.33-.37-6.66-.7-10-1.07A5,5,0,0,1,.35,21Z" transform="translate(-0.35 -0.42)"/><path class="cls-1" d="M.47,35.68v-6.2A277.26,277.26,0,0,1,114.28,62.6q74.61,40.52,115.34,115.14a276.76,276.76,0,0,1,33,109.6h-6.19c-7-67.14-33.91-125.06-82.13-172.48S67.88,41.54.47,35.68Z" transform="translate(-0.35 -0.42)"/><path class="cls-1" d="M.48,50.25V44.08a17.21,17.21,0,0,1,2,0c6.77.78,13.58,1.38,20.31,2.43A257.18,257.18,0,0,1,67.51,57.71a268.92,268.92,0,0,1,81.14,44.92A269.67,269.67,0,0,1,206.55,167a267.73,267.73,0,0,1,36,85A282.27,282.27,0,0,1,248,284.77a24.28,24.28,0,0,1,0,2.57h-6.16c-.14-1.09-.32-2.22-.45-3.36-.34-2.83-.58-5.67-1-8.49a266.63,266.63,0,0,0-7.88-36.44,260,260,0,0,0-19.09-47.55,263.7,263.7,0,0,0-33.87-50.05,263.56,263.56,0,0,0-58.45-50.76A261.57,261.57,0,0,0,40,56.39,267.26,267.26,0,0,0,8.34,51C5.76,50.66,3.17,50.49.48,50.25Z" transform="translate(-0.35 -0.42)"/><path class="cls-1" d="M233.59,287.36h-6.13c-6.81-59.21-30.9-110.23-73.47-152S60,70.32.5,64.59v-6a25.41,25.41,0,0,1,2.62,0c4.23.45,8.48.82,12.69,1.44a260.61,260.61,0,0,1,38.54,8.58A254.64,254.64,0,0,1,125.11,103a257.47,257.47,0,0,1,28,22.56,254.37,254.37,0,0,1,46.25,57.24,249.39,249.39,0,0,1,29.34,73.93c1.31,5.93,2.38,11.91,3.41,17.89.63,3.6,1,7.25,1.43,10.89A16.28,16.28,0,0,1,233.59,287.36Z" transform="translate(-0.35 -0.42)"/><path class="cls-1" d="M219.31,287.37h-6.4c-6.63-55.39-29.4-102.94-69.17-142S56,84.69.5,79.05V73a20.64,20.64,0,0,1,2.36,0c5,.6,10,1.11,14.94,1.89A232.15,232.15,0,0,1,55.56,84.1a240.72,240.72,0,0,1,37.78,16.28,242.54,242.54,0,0,1,42.47,29,241,241,0,0,1,47.62,54.89,239.43,239.43,0,0,1,24,50,243,243,0,0,1,10.3,41.41C218.36,279.47,218.78,283.27,219.31,287.37Z" transform="translate(-0.35 -0.42)"/><path class="cls-1" d="M204.3,287.35h-5.87c-6.54-51.31-27.84-95.45-64.78-131.67S52.14,99.06.54,93.55V87.63c3.7-.83,28.42,3.55,41,7.18a226,226,0,0,1,87.07,47.39,226.3,226.3,0,0,1,60.72,84.69C198.79,249.74,204.3,276.78,204.3,287.35Z" transform="translate(-0.35 -0.42)"/><path class="cls-1" d="M189.77,287.38h-5.85c-6.43-47.42-26.34-88.16-60.5-121.58S48,113.39.48,108v-6.12a45.5,45.5,0,0,1,8.44.87c43.94,6.19,82.21,24.46,114.79,54.46a209.93,209.93,0,0,1,55.51,83.58C185.7,258.53,190.19,281.14,189.77,287.38Z" transform="translate(-0.35 -0.42)"/><path class="cls-1" d="M175.61,287.25a5.2,5.2,0,0,1-1,.22c-1.65,0-3.29,0-5.17,0-.33-1.88-.68-3.7-1-5.52a188.83,188.83,0,0,0-40.18-89.51,190,190,0,0,0-65.22-51.84A186,186,0,0,0,9.38,123.8c-2.2-.34-4.42-.6-6.63-.92-.73-.1-1.46-.25-2.28-.4v-6.15a47,47,0,0,1,6.85.71A195,195,0,0,1,100,156a195.79,195.79,0,0,1,57.06,69.53A188.72,188.72,0,0,1,175.61,287.25Z" transform="translate(-0.35 -0.42)"/><path class="cls-1" d="M161.21,287.4a28.56,28.56,0,0,1-6.41-.11c-6.21-39.64-23.32-73.45-51.9-101.25S40,142.1.45,137v-6.31a176.47,176.47,0,0,1,54.38,14.9,182.41,182.41,0,0,1,79.75,69.28A180.45,180.45,0,0,1,161.21,287.4Z" transform="translate(-0.35 -0.42)"/><path class="cls-1" d="M146.2,287.41h-5.93c-6-35.47-21.61-66-47.39-91S36.22,156.52.5,151.57v-6.35a164.11,164.11,0,0,1,58.78,18.66,169.41,169.41,0,0,1,66.63,64.44C138.82,250.26,146,277.15,146.2,287.41Z" transform="translate(-0.35 -0.42)"/><path class="cls-1" d="M131.81,287.37h-6.15c-5.8-31.45-20-58.56-43-80.85S32.17,170.89.46,166.08v-6.23a141.88,141.88,0,0,1,42,11.82,153.75,153.75,0,0,1,65.94,55.83C120.23,245.15,131.61,274.45,131.81,287.37Z" transform="translate(-0.35 -0.42)"/><path class="cls-1" d="M.51,180.66v-6.4a139,139,0,0,1,70,32c27.57,23.4,42.56,55,46.73,81.11H111c-5.55-27.47-18.31-51.19-38.52-70.7S28.21,185.28.51,180.66Z" transform="translate(-0.35 -0.42)"/><path class="cls-1" d="M.47,195.26v-6.2c1.09.1,2,.12,3,.3A123.61,123.61,0,0,1,56.6,213.51q35.47,27.83,45.7,71.81c.14.58.21,1.17.35,2a46.59,46.59,0,0,1-6.36.07,119,119,0,0,0-34.05-60.59C44.89,210.15,24.28,199.78.47,195.26Z" transform="translate(-0.35 -0.42)"/><path class="cls-1" d="M87.86,287.35H81.75C69.35,246,42.36,220.13.46,209.69c0-.46-.1-1-.1-1.5,0-1.42,0-2.84,0-4.38,4.89.29,9.34,1.76,13.77,3.2A109.3,109.3,0,0,1,57.9,233.75,109.65,109.65,0,0,1,87.38,285C87.57,285.73,87.68,286.46,87.86,287.35Z" transform="translate(-0.35 -0.42)"/><path class="cls-1" d="M.47,224.53c0-.51-.11-1-.11-1.54,0-1.42,0-2.83,0-4.57,1,.13,1.75.15,2.5.33A95.5,95.5,0,0,1,40.6,237.57a94.85,94.85,0,0,1,26.59,33.88c2,4.41,3.55,9.07,5.27,13.62a19.78,19.78,0,0,1,.53,2.3H66.7Q50.32,238.35.47,224.53Z" transform="translate(-0.35 -0.42)"/><path class="cls-1" d="M.49,239.5v-6.43a79.39,79.39,0,0,1,30.84,15.54,82.31,82.31,0,0,1,26.75,38.7H51.47C42.19,263.34,25.16,247.32.49,239.5Z" transform="translate(-0.35 -0.42)"/><path class="cls-1" d="M.46,254.68v-6.61a64.41,64.41,0,0,1,21.25,11.27,67.77,67.77,0,0,1,21,27.94c-2.33.41-4.45.13-6.74.21A63.14,63.14,0,0,0,.46,254.68Z" transform="translate(-0.35 -0.42)"/><path class="cls-1" d="M1.34,263.88a44.33,44.33,0,0,1,11.74,7A52.82,52.82,0,0,1,25.51,285a17.23,17.23,0,0,1,.85,1.58c.09.18,0,.43,0,.77H19.5a49,49,0,0,0-19.09-17V264Z" transform="translate(-0.35 -0.42)"/><path class="cls-2" d="M1.34,263.88.41,264C.6,263.24,1,263.62,1.34,263.88Z" transform="translate(-0.35 -0.42)"/></svg>