<svg xmlns="http://www.w3.org/2000/svg" viewBox="0 0 116.89 114"><defs><style>.cls-1{fill:#2dccd3;}.cls-2{fill:#00263e;}.cls-3{fill:#fff;}</style></defs><title>Asset 4</title><g id="Layer_2" data-name="Layer 2"><g id="Layer_1-2" data-name="Layer 1"><path class="cls-1" d="M50.55,81.81a29.15,29.15,0,0,0,15.77-3.92c5.55.46,10.77,1.12,15.11,1.9,16.69,3,21.38,25.81,21.38,34.21H0c0-8.4,4.7-31.23,21.38-34.21C25.75,79,31,78.34,36.6,77.88a29.21,29.21,0,0,0,13.95,3.93"/><path class="cls-1" d="M62.83,47.44a5.72,5.72,0,0,1-2.37-4.69V25.17a22.22,22.22,0,0,0-9.05-1.92c-13.16,0-23.82,11.5-23.82,25.7s10.66,25.7,23.82,25.7c11,0,20.31-8.1,23-19.1Z"/><path class="cls-2" d="M60.39,0V42.81a5.72,5.72,0,0,0,2.37,4.69L89.21,66l25.39-18.5a5.73,5.73,0,0,0,2.29-4.63V0Z"/><polygon class="cls-3" points="84.8 43.95 70.97 29.59 75.41 25 84.8 34.66 105.28 13.39 109.72 18.09 84.8 43.95"/></g></g></svg>