<svg width="86" height="86" viewBox="0 0 86 86" fill="none" xmlns="http://www.w3.org/2000/svg">
<path fill-rule="evenodd" clip-rule="evenodd" d="M17.0761 0.395714C14.4989 1.21283 12.6849 2.59557 11.0461 4.9913C9.58746 7.12342 9.47681 7.83525 9.32045 16.0882L9.17311 23.8501L4.58656 23.9277L0 24.0053V31.4974V38.9897L7.97355 38.8997C15.909 38.8099 15.9544 38.8057 17.4995 38.069C19.7843 36.9792 21.3703 35.7102 22.3211 34.2112C23.9077 31.7099 24.07 30.7322 24.2498 22.58L24.4146 15.1004L28.7189 15.0225L33.0232 14.9446V7.47228V0L25.6142 0.0189106C20.4591 0.0318941 17.8616 0.14677 17.0761 0.395714ZM35.496 11.925L35.4223 23.8501L30.8358 23.9277L26.2492 24.0053V31.4974V38.9897L34.2386 38.8997L42.2279 38.8093L44.3773 37.7464C47.0536 36.4229 48.795 34.5818 49.7152 32.1031C50.3643 30.3548 50.3697 30.2309 50.4575 15.1709L50.5458 0H43.0578H35.5697L35.496 11.925ZM53.0629 11.8545V23.709H52.3573C51.6661 23.709 51.6514 23.7538 51.6418 25.8964C51.6139 32.1036 50.0604 35.4144 46.0445 37.824L44.1721 38.9473L51.0028 38.949C54.9221 38.9499 58.4708 38.817 59.3292 38.6374C62.8096 37.9092 66.0363 35.2973 67.1576 32.3004C68.1052 29.7677 68.2996 26.473 68.3022 12.9129L68.3044 0H60.6837H53.0629V11.8545ZM70.7772 11.925L70.7035 23.8501L69.9274 23.9393L69.1512 24.0288V26.6774C69.1512 32.6176 67.6219 35.5928 63.2239 38.2093L61.9538 38.9651L69.5745 38.8697C74.5845 38.8071 77.5546 38.6558 78.2441 38.4286C80.0327 37.8384 82.7754 35.8017 83.755 34.336C85.6577 31.4889 85.6396 31.6639 85.7381 15.0298L85.827 0H78.339H70.8509L70.7772 11.925ZM24.5557 55.8976V63.2239H25.4025H26.2492V57.8716V52.519L31.6568 58.1539C34.6312 61.2527 37.1079 63.7884 37.1607 63.7884C37.2138 63.7884 37.257 60.4861 37.257 56.4499V49.1114H36.4164H35.5756L35.4991 54.5069L35.4223 59.9024L29.989 54.2368L24.5557 48.5709V55.8976ZM3.19394 49.3643C1.09428 50.3415 0.465712 52.7956 1.88345 54.481C2.29864 54.974 3.5682 55.8191 4.7051 56.3588C6.93064 57.4152 7.62074 58.1144 7.62074 59.3136C7.62074 60.3715 6.37969 61.7551 5.23884 61.969C4.0167 62.1985 2.70931 61.5234 2.21566 60.4079C1.83716 59.553 1.54221 59.4138 0.751066 59.7175C0.115158 59.9614 0.68502 61.33 1.84789 62.3509C3.17079 63.5124 4.88715 63.743 6.59363 62.9882C8.41048 62.1844 9.09324 61.0133 8.95973 58.9301C8.82933 56.8962 8.46805 56.4937 5.44262 55.0085C2.7223 53.6734 2.1482 52.941 2.84592 51.696C3.4649 50.5918 4.60998 50.1202 5.73023 50.5077C6.22671 50.6793 6.82339 51.0638 7.05624 51.3618C7.43643 51.8481 7.53663 51.8611 8.03791 51.4877C8.47088 51.1654 8.5293 50.9661 8.29842 50.5997C7.32551 49.0578 5.04126 48.5049 3.19394 49.3643ZM13.9742 54.5447C12.5954 57.6882 11.1714 60.9354 10.8096 61.7605L10.152 63.2603L11.0286 63.1717C11.8144 63.0921 11.986 62.8923 12.6815 61.2482L13.4577 59.4136L16.537 59.3365L19.6164 59.2592L20.4261 61.2417C21.1747 63.0735 21.3003 63.2239 22.0793 63.2239C22.7572 63.2239 22.8865 63.1297 22.7383 62.7438C21.8882 60.5282 16.7591 48.832 16.6372 48.8309C16.5511 48.83 15.3527 51.4013 13.9742 54.5447ZM55.9343 49.3669C51.7262 50.8202 49.8219 55.5535 51.8467 59.5265C52.7443 61.2874 54.5332 62.7077 56.5309 63.2457C59.3405 64.0024 62.912 62.5485 64.4768 60.0116C65.5514 58.2696 65.8138 55.4248 65.0777 53.4976C64.4178 51.7694 62.2657 49.8323 60.3851 49.2737C58.4866 48.7101 57.794 48.7245 55.9343 49.3669ZM70.4106 49.1295C69.9392 49.2667 69.1771 49.7716 68.7171 50.2514C68.0253 50.9737 67.881 51.3604 67.881 52.4942C67.881 54.2244 68.5596 55.0028 71.1103 56.1996C73.6068 57.3706 74.2317 57.9879 74.2317 59.2832C74.2317 60.0255 74.0231 60.533 73.5054 61.0506C72.0555 62.5005 70.1244 62.2524 69.0148 60.4737C68.64 59.8725 68.2539 59.5838 67.8839 59.6283C66.4548 59.8 67.6488 62.1189 69.6138 62.9882C72.1266 64.0997 74.9827 62.8536 75.6562 60.352C76.2771 58.0458 75.2811 56.4268 72.4795 55.188C69.6586 53.941 68.8986 52.8961 69.7097 51.3804C70.3569 50.1713 72.7222 50.0911 73.6319 51.2475C74.114 51.8603 74.1905 51.875 74.777 51.464L75.4055 51.0237L74.6229 50.2069C74.1924 49.7578 73.3886 49.2647 72.8365 49.1112C71.6844 48.7911 71.5712 48.7919 70.4106 49.1295ZM47.1357 55.7006C47.1357 61.7255 47.0914 62.3298 46.6195 62.7568C46.0036 63.3142 45.3592 63.3504 44.5746 62.8711C44.0815 62.5702 43.9355 62.6007 43.5808 63.0794C43.2088 63.5813 43.2181 63.6798 43.6685 64.0091C45.0047 64.9866 47.1422 64.7001 48.0965 63.4156C48.6519 62.6685 48.6934 62.2056 48.777 55.8654L48.8662 49.1114H48.0008H47.1357V55.7006ZM78.1832 56.1677V63.2239H81.8524H85.5216V62.5183V61.8127H82.5479H79.5741L79.6548 59.0607L79.7355 56.3088L82.4875 56.2281C85.2021 56.1482 85.2394 56.1378 85.2394 55.4519C85.2394 54.759 85.2292 54.7564 82.4045 54.7564H79.5696L79.6525 52.7101L79.7355 50.6638L82.6286 50.5834C85.4937 50.5038 85.5216 50.4962 85.5216 49.8072V49.1114H81.8524H78.1832V56.1677ZM61.0946 51.1905C64.4111 52.9797 65.0046 57.5067 62.2798 60.2315C60.1474 62.3639 57.2617 62.6154 54.976 60.8683C52.3796 58.8832 51.7493 55.5072 53.5083 53.0045C55.339 50.3996 58.3114 49.6889 61.0946 51.1905ZM17.7583 54.8482C18.2556 56.063 18.7318 57.2377 18.8167 57.459C18.9426 57.7867 18.5475 57.8612 16.6829 57.8612C15.3135 57.8612 14.3947 57.7455 14.3947 57.5727C14.3947 57.0051 16.5153 52.252 16.6829 52.4437C16.7772 52.5515 17.2613 53.6334 17.7583 54.8482ZM23.1925 71.7219C22.9003 72.4038 21.9127 74.8329 20.9977 77.1202C20.0826 79.4076 19.2661 81.2808 19.1831 81.2834C19.0998 81.2859 18.2748 79.1174 17.3496 76.4648C16.4244 73.8122 15.5898 71.5159 15.4944 71.3617C15.3993 71.2076 14.9982 71.1235 14.603 71.1749L13.8847 71.268L16.4681 78.3943C17.8893 82.3136 19.1154 85.5197 19.193 85.5191C19.2706 85.5185 20.2867 83.1064 21.451 80.1589C22.6153 77.2114 23.6412 74.799 23.7307 74.7981C23.8205 74.797 24.8298 77.1541 25.974 80.0356C27.1183 82.9173 28.1355 85.3252 28.2348 85.3867C28.3757 85.4737 30.4545 80.0056 33.5211 71.4797C33.6044 71.248 33.3599 71.1269 32.809 71.1269C31.9747 71.1269 31.96 71.1551 30.2016 76.2269C29.2292 79.0322 28.3359 81.223 28.2168 81.0957C28.0977 80.9687 27.079 78.5783 25.9534 75.784C24.8278 72.9898 23.8656 70.6539 23.8151 70.5929C23.7646 70.5322 23.4843 71.0403 23.1925 71.7219ZM38.4565 70.9962C38.2002 71.4758 33.6772 81.698 32.5519 84.3407L32.1533 85.2769L33.0399 85.1875C33.8499 85.1059 34.0012 84.9207 34.7845 83.052L35.6422 81.0057H38.5736H41.5048L42.4695 83.1225C43.3039 84.9535 43.5319 85.2394 44.156 85.2394C44.5528 85.2394 44.8777 85.1237 44.8777 84.9826C44.8777 84.8411 43.5952 81.7612 42.0278 78.138C40.4602 74.5148 39.082 71.3011 38.9651 70.9962C38.7537 70.4456 38.7506 70.4456 38.4565 70.9962ZM43.7487 71.8325C43.7487 72.5066 43.8243 72.5382 45.4368 72.5382H47.125L47.2009 78.8182L47.2768 85.0983L48.053 85.1875L48.8292 85.2769V78.9074V72.5382H50.5227C52.1408 72.5382 52.2162 72.5068 52.2162 71.8325V71.1269H47.9824H43.7487V71.8325ZM53.9097 78.1832V85.2394H57.5789H61.2482V84.3926V83.5459H58.2846H55.3209V80.8645V78.1832H58.1434C60.9549 78.1832 60.9659 78.1803 60.9659 77.4877C60.9659 76.8018 60.9287 76.7914 58.214 76.7115L55.4621 76.6308L55.3791 74.5845L55.2961 72.5382H58.2721H61.2482V71.8325V71.1269H57.5789H53.9097V78.1832ZM63.8542 78.1126L63.9295 85.0983L64.7057 85.1875L65.4819 85.2769V82.1533C65.4819 80.4355 65.5849 79.0299 65.7105 79.0299C65.8364 79.0299 66.8057 80.2983 67.8644 81.8484C70.1086 85.1344 70.2872 85.31 71.2669 85.1892C71.9931 85.0997 71.9691 85.0469 69.848 82.0418C68.6615 80.3607 67.7334 78.9596 67.7859 78.9286C67.8381 78.8975 68.351 78.6585 68.9256 78.3977C70.2206 77.8095 70.8785 76.8396 71.0363 75.2861C71.3146 72.5466 69.5867 71.128 65.9711 71.1275L63.7785 71.1269L63.8542 78.1126ZM68.6897 73.1233C69.285 73.5912 69.4334 73.948 69.4334 74.9085C69.4334 76.458 68.6194 77.2653 66.8065 77.5139L65.4819 77.6954V75.1168V72.5382H66.7139C67.533 72.5382 68.1955 72.7343 68.6897 73.1233ZM39.7972 76.6711C40.3405 78.0107 40.8274 79.2165 40.8791 79.3505C40.931 79.4846 39.933 79.5944 38.6614 79.5944C36.5793 79.5944 36.3679 79.5453 36.5304 79.1005C37.117 77.4959 38.5488 74.2387 38.6682 74.2373C38.7458 74.2365 39.2539 75.3316 39.7972 76.6711Z" fill="#1A4F9D"/>
</svg>
