<svg xmlns="http://www.w3.org/2000/svg" viewBox="0 0 112.97 107.53"><defs><style>.cls-1{fill:#2dccd3;}</style></defs><title>Asset 5</title><g id="Layer_2" data-name="Layer 2"><g id="Layer_1-2" data-name="Layer 1"><polygon class="cls-1" points="97.56 30 102.32 39.65 112.97 41.2 105.26 48.71 107.08 59.32 97.56 54.31 88.03 59.32 89.85 48.71 82.14 41.2 92.79 39.65 97.56 30"/><polygon class="cls-1" points="15.41 30 20.17 39.65 30.82 41.2 23.12 48.71 24.94 59.32 15.41 54.31 5.89 59.32 7.71 48.71 0 41.2 10.65 39.65 15.41 30"/><polygon class="cls-1" points="56.59 0 61.35 9.65 72 11.2 64.29 18.71 66.11 29.32 56.59 24.31 47.06 29.32 48.88 18.71 41.17 11.2 51.82 9.65 56.59 0"/><polygon class="cls-1" points="31.14 78.21 35.9 87.86 46.55 89.41 38.84 96.92 40.66 107.53 31.14 102.52 21.61 107.53 23.43 96.92 15.72 89.41 26.37 87.86 31.14 78.21"/><polygon class="cls-1" points="82.14 78.21 86.91 87.86 97.56 89.41 89.85 96.92 91.67 107.53 82.14 102.52 72.62 107.53 74.44 96.92 66.73 89.41 77.38 87.86 82.14 78.21"/></g></g></svg>