<svg width="136" height="28" viewBox="0 0 136 28" fill="none" xmlns="http://www.w3.org/2000/svg">
<path fill-rule="evenodd" clip-rule="evenodd" d="M55.8448 8.16158C52.2506 8.67931 49.9256 10.8837 49.9282 13.7711C49.9309 16.6211 51.3368 18.0194 56.0343 19.845C60.0456 21.4037 60.8332 22.2015 59.6682 23.5262C58.4399 24.9227 54.7836 24.5222 51.7689 22.661C51.2116 22.317 50.7286 22.0729 50.6959 22.1185C50.6632 22.1642 50.3894 22.8394 50.0877 23.6189C49.7857 24.3985 49.455 25.2399 49.3527 25.4891C49.2023 25.8543 49.4457 26.0625 50.6134 26.5676C52.2878 27.2915 55.5423 28 57.1951 28C58.6897 28 61.2187 27.3459 62.3369 26.6699C64.967 25.0804 65.5115 21.182 63.4273 18.8606C62.6288 17.9715 60.2556 16.7451 57.2198 15.6532C54.3904 14.6355 53.6974 13.1003 55.6182 12.105C57.077 11.3494 59.2271 11.5533 61.5289 12.6658C62.6096 13.1882 63.5251 13.576 63.5633 13.5276C63.6589 13.4062 65.0353 9.97765 65.0353 9.86065C65.0353 9.63464 62.4064 8.70173 61.0825 8.45794C58.7222 8.02319 57.3466 7.94536 55.8448 8.16158ZM73.8068 8.51515C70.9429 9.42976 68.7915 11.436 67.6291 14.2765C67.1253 15.5078 67.0222 16.2387 67.0207 18.5936C67.0191 21.1771 67.0865 21.5725 67.782 23.052C68.6964 24.9982 70.5384 26.7305 72.3495 27.348C75.3444 28.3693 79.4735 28.0242 82.8724 26.4689L84.5523 25.7002L83.6179 23.8854L82.6835 22.0709L81.6805 22.6901C79.4625 24.0594 76.4876 24.524 74.7112 23.7785C73.5119 23.2754 72.2478 21.8647 71.9124 20.6553C71.3334 18.5691 70.8409 18.7225 78.1161 18.7225H84.6087L84.4757 16.4366C84.1797 11.3615 81.4768 8.44145 76.8937 8.24507C75.6949 8.19379 74.4804 8.29996 73.8068 8.51515ZM124.94 8.52726C121.42 9.60345 118.705 13.0359 118.302 16.9185C117.553 24.123 121.722 28.512 128.724 27.8915C129.773 27.7987 131.021 27.6005 131.498 27.4511C133.233 26.9075 135.659 25.8556 135.659 25.6468C135.659 25.5291 135.287 24.6954 134.832 23.7942L134.006 22.1557L132.195 23.0643C129.365 24.4846 126.568 24.4771 124.706 23.0448C123.842 22.3799 123.023 20.6929 123.015 19.56L123.01 18.7225H129.505H136L135.841 16.7033C135.575 13.3297 134.474 11.0005 132.456 9.54521C130.664 8.25152 127.322 7.79898 124.94 8.52726ZM93.9447 9.5331C93.3331 10.1488 92.5989 11.0765 92.3135 11.5948C92.0281 12.1133 91.7029 12.5375 91.591 12.5375C91.479 12.5375 91.3873 11.6677 91.3873 10.6047V8.67184H89.2791H87.1709V18.0782V27.4846H89.5231H91.8755L91.9607 22.2229L92.0461 16.9613L92.8366 15.8689C94.1676 14.0299 94.9695 13.6237 96.7586 13.883C97.2371 13.9523 97.5515 13.2962 98.6251 9.9877C98.8541 9.28235 97.439 8.41645 96.055 8.41516C95.2233 8.41439 94.8715 8.60071 93.9447 9.5331ZM99.8847 8.99397C99.9514 9.17128 101.397 13.4041 103.097 18.4003L106.188 27.4846H108.62H111.051L114.758 18.0782L118.465 8.67184H115.923H113.38L111.148 15.2542C109.718 19.4709 108.855 21.6704 108.746 21.3748C108.653 21.1207 108.097 19.3474 107.512 17.4339C106.927 15.5204 106.074 12.7661 105.617 11.3133L104.786 8.67184H102.275C100.377 8.67184 99.793 8.75044 99.8847 8.99397ZM78.2113 12.2584C79.0129 12.8112 79.4561 13.6575 79.5729 14.8568L79.6606 15.7588L75.7669 15.8302L71.8731 15.9016L72.0489 15.1859C72.4771 13.4397 73.3551 12.4434 74.9658 11.877C76.1205 11.4708 77.2642 11.6051 78.2113 12.2584ZM129.554 12.1999C130.278 12.6447 130.915 14.0049 130.915 15.1063V15.8877H127.094C122.776 15.8877 122.828 15.9189 123.813 13.9288C124.877 11.779 127.555 10.9724 129.554 12.1999Z" fill="#EE3324"/>
<path d="M40.1643 3.39374C39.8863 2.30956 40.373 1.14136 41.381 0.473385C44.0605 -1.30223 47.1086 2.32889 44.8186 4.56837C43.3134 6.0404 40.6727 5.37371 40.1643 3.39374Z" fill="#231F20"/>
<path d="M2.13767 25.7865C0.120165 24.0125 0 23.41 0 15.0677V8.15645H2.6352H5.27039V14.7479V21.3393L6.04066 22.0925C6.72528 22.7618 6.9917 22.8458 8.43262 22.8458C9.87355 22.8458 10.14 22.7618 10.8246 22.0925L11.5949 21.3393V14.7479V8.15645H14.2301H16.8652V15.0004C16.8652 23.2432 16.7714 23.7445 14.8802 25.5938C13.2002 27.2367 11.6829 27.7423 8.43262 27.7423C5.38818 27.7423 3.80127 27.2493 2.13767 25.7865Z" fill="#231F20"/>
<path d="M19.764 27.4846V17.8205V8.15645L22.465 8.1598L25.1661 8.16315L28.4601 13.233L31.7541 18.3029L31.8255 13.2297L31.8969 8.15645H34.3948H36.8927V17.9592V27.7616L34.4552 27.6877L32.0176 27.6134L28.5919 22.5443C26.7077 19.7564 25.077 17.4659 24.9685 17.4546C24.8599 17.4432 24.7708 19.6953 24.7708 22.4593V27.4846H22.2674H19.764Z" fill="#231F20"/>
<path d="M40.3185 27.4846V17.8205V8.15645H42.9537H45.5889V17.8205V27.4846H42.9537H40.3185Z" fill="#231F20"/>
</svg>
